<svg width="128" height="24" viewBox="0 0 128 24" fill="none" xmlns="http://www.w3.org/2000/svg">
<path d="M0 23.9997V2.5116C0 1.81393 0.232555 1.23254 0.697665 0.767432C1.20929 0.255811 1.81393 0 2.51159 0H17.4416V4.11623H4.88366V9.27895H14.2324V10.8836C14.2324 11.5812 13.9766 12.1859 13.4649 12.6975C12.9998 13.1626 12.4184 13.3952 11.7208 13.3952H4.88366V23.9997H0Z" fill="white"/>
<path d="M30.2408 14.3023C29.5896 14.6279 28.6826 14.9302 27.5199 15.2093C26.4501 15.4419 25.9152 15.5581 25.9152 15.5581C25.078 15.7907 24.4734 16.093 24.1013 16.4651C23.7757 16.9767 23.6129 17.4883 23.6129 18C23.6129 18.6976 23.8222 19.2558 24.2408 19.6744C24.6594 20.0465 25.2641 20.2325 26.0548 20.2325C27.3571 20.2325 28.3803 19.8604 29.1245 19.1162C29.8687 18.3721 30.2408 17.3488 30.2408 16.0465V14.3023ZM31.357 22.8836C30.3803 23.3952 29.3338 23.6976 28.2175 23.7906C27.1478 23.9301 26.1943 23.9999 25.3571 23.9999C23.6827 23.9999 22.2176 23.558 20.9618 22.6743C19.706 21.7441 19.0781 20.2325 19.0781 18.1395C19.0781 16.186 19.6363 14.7907 20.7525 13.9535C21.9153 13.1163 23.3804 12.5582 25.1478 12.2791C25.3804 12.2791 25.6594 12.2559 25.985 12.2093C26.3106 12.1163 26.6827 12.0466 27.1013 12C29.1478 11.721 30.171 11.1163 30.171 10.1861C30.171 9.48845 29.7989 9.0466 29.0547 8.86055C28.3571 8.628 27.7059 8.51172 27.1013 8.51172C26.4501 8.51172 25.8687 8.60474 25.3571 8.79079C24.8455 8.97683 24.4734 9.32566 24.2408 9.83728H19.5665C19.7525 8.39544 20.4037 7.20941 21.52 6.27919C22.7758 5.20944 24.5664 4.67456 26.892 4.67456C29.4966 4.67456 31.4501 5.11642 32.7524 6.00012C34.1012 6.93034 34.7756 8.23265 34.7756 9.90705V16.2558C34.7756 18.1162 34.4268 19.5813 33.7291 20.6511C33.0779 21.6743 32.2873 22.4185 31.357 22.8836Z" fill="white"/>
<path d="M36.4023 17.5116H41.1465C41.193 18.4418 41.5418 19.1395 42.193 19.6046C42.8906 20.0697 43.8208 20.3023 44.9836 20.3023C45.8208 20.3023 46.5417 20.1395 47.1464 19.8139C47.7045 19.4883 47.9836 19.0465 47.9836 18.4883C47.9836 17.6511 47.0069 17.0232 45.0534 16.6046C44.2162 16.4651 43.5883 16.3256 43.1697 16.186C40.7046 15.5814 39.0535 14.8605 38.2163 14.0233C37.2861 13.1861 36.8209 12.0698 36.8209 10.6745C36.8209 8.90706 37.4954 7.44197 38.8442 6.27919C40.2395 5.20944 42.0534 4.67456 44.286 4.67456C46.7045 4.67456 48.6347 5.20944 50.0766 6.27919C51.4254 7.44197 52.1463 8.95357 52.2393 10.814H49.2394C48.3557 10.814 47.6813 10.4187 47.2162 9.62798C47.0301 9.44194 46.8441 9.2559 46.658 9.06985C46.0999 8.65125 45.3325 8.44195 44.3557 8.44195C43.4255 8.44195 42.7278 8.58149 42.2627 8.86055C41.8441 9.13962 41.6348 9.55822 41.6348 10.1163C41.6348 10.8605 42.8441 11.4884 45.2627 12C45.5418 12.0931 45.7743 12.1628 45.9604 12.2093C46.1929 12.2559 46.4022 12.2791 46.5883 12.2791C48.9603 12.8838 50.6115 13.5814 51.5417 14.3721C52.4254 15.2093 52.8672 16.3256 52.8672 17.7209C52.8672 19.7674 52.1231 21.3488 50.6347 22.465C49.2394 23.4883 47.1464 23.9999 44.3557 23.9999C41.7046 23.9999 39.7279 23.465 38.4256 22.3953C37.0768 21.3255 36.4023 19.7674 36.4023 17.7209V17.5116Z" fill="white"/>
<path d="M66.1315 10.6743C65.4338 9.69755 64.4803 9.20918 63.271 9.20918C61.9687 9.20918 60.9688 9.67429 60.2711 10.6045C59.5734 11.5347 59.2246 12.8138 59.2246 14.4417V23.9997H54.4805V0H56.8525C57.5037 0 58.0618 0.232555 58.5269 0.697665C58.992 1.16278 59.2246 1.72091 59.2246 2.37206V7.88362C60.0618 6.48829 61.2478 5.60458 62.7827 5.23249C64.3175 4.8604 65.7826 4.95342 67.178 5.51156C68.4803 6.06969 69.5733 6.9534 70.457 8.16269C71.3407 9.37197 71.7826 11.0464 71.7826 13.1859V23.9997H67.1082V14.3719C67.1082 13.6742 67.0384 13.0463 66.8989 12.4882C66.8059 11.8836 66.5501 11.2789 66.1315 10.6743Z" fill="white"/>
<path d="M86.7199 17.9302H90.2083C89.6966 19.8837 88.7199 21.372 87.2781 22.3953C85.8362 23.465 84.0223 23.9999 81.8363 23.9999C79.1852 23.9999 77.1154 23.1394 75.6271 21.4185C74.1387 19.7441 73.3945 17.3488 73.3945 14.2326C73.3945 11.2559 74.1155 8.93032 75.5573 7.25592C77.0456 5.53501 79.1154 4.67456 81.7665 4.67456C84.5572 4.67456 86.7199 5.51176 88.2548 7.18616C89.7432 8.90706 90.4873 11.3024 90.4873 14.3721C90.4873 14.5582 90.4873 14.7209 90.4873 14.8605C90.4873 15 90.4873 15.093 90.4873 15.1395C90.4873 15.3721 90.4641 15.5349 90.4176 15.6279H78.348C78.3945 17.0697 78.7433 18.1395 79.3945 18.8372C79.9991 19.5813 80.9061 19.9534 82.1153 19.9534C82.906 19.9534 83.5804 19.7906 84.1386 19.4651C84.2781 19.4186 84.3944 19.3488 84.4874 19.2558C84.6269 19.1162 84.7665 18.9767 84.906 18.8372C84.9525 18.6976 85.1153 18.5116 85.3944 18.279C85.7199 18.0465 86.1618 17.9302 86.7199 17.9302ZM78.348 12.4884H85.4641C85.3711 11.2326 85.0455 10.3024 84.4874 9.69775C83.8828 9.0466 83.0223 8.72102 81.906 8.72102C80.8828 8.72102 80.0456 9.0466 79.3945 9.69775C78.7433 10.3489 78.3945 11.2791 78.348 12.4884Z" fill="white"/>
<path d="M108.291 24.0001H105.849C105.152 24.0001 104.57 23.7908 104.105 23.3722C103.687 22.907 103.477 22.3257 103.477 21.628V12.1397C103.477 11.0235 103.129 10.2095 102.431 9.69792C101.78 9.1863 101.036 8.93049 100.198 8.93049C99.3612 8.93049 98.617 9.1863 97.9659 9.69792C97.3147 10.2095 96.9891 11.0235 96.9891 12.1397V24.0001H92.1055V13.1165C92.1055 9.95373 92.9194 7.83748 94.5473 6.76772C96.2217 5.69797 98.0589 5.11658 100.059 5.02356C102.105 5.02356 103.989 5.55844 105.71 6.62819C107.431 7.69794 108.291 9.86071 108.291 13.1165V24.0001Z" fill="white"/>
<mask id="path-7-inside-1_28632_11910" fill="white">
<path d="M123.671 10.5976C124.649 9.82066 124.884 8.38848 123.954 7.55503C123.022 6.72025 121.932 6.10282 120.75 5.75311C118.881 5.20019 116.895 5.34913 115.114 6.17568C113.334 7.00222 111.864 8.45764 110.945 10.3048C110.026 12.1519 109.711 14.2819 110.052 16.3476C110.393 18.4133 111.37 20.2929 112.823 21.6803C114.276 23.0677 116.121 23.8809 118.055 23.9876C119.99 24.0942 121.901 23.4879 123.476 22.2675C124.48 21.4906 125.31 20.4938 125.918 19.3514C126.507 18.2445 125.788 16.9742 124.591 16.603C123.319 16.2088 122.006 17.0488 121.026 17.9497C120.944 18.0254 120.858 18.0976 120.77 18.166C120.05 18.7239 119.176 19.001 118.292 18.9523C117.407 18.9036 116.564 18.5318 115.9 17.8976C115.236 17.2634 114.789 16.4041 114.633 15.4598C114.477 14.5155 114.621 13.5418 115.041 12.6974C115.462 11.8531 116.133 11.1877 116.947 10.8099C117.761 10.4321 118.669 10.364 119.523 10.6167C119.564 10.6288 119.605 10.6415 119.645 10.6549C120.965 11.0955 122.581 11.4631 123.671 10.5976Z"/>
</mask>
<path d="M123.671 10.5976C124.649 9.82066 124.884 8.38848 123.954 7.55503C123.022 6.72025 121.932 6.10282 120.75 5.75311C118.881 5.20019 116.895 5.34913 115.114 6.17568C113.334 7.00222 111.864 8.45764 110.945 10.3048C110.026 12.1519 109.711 14.2819 110.052 16.3476C110.393 18.4133 111.37 20.2929 112.823 21.6803C114.276 23.0677 116.121 23.8809 118.055 23.9876C119.99 24.0942 121.901 23.4879 123.476 22.2675C124.48 21.4906 125.31 20.4938 125.918 19.3514C126.507 18.2445 125.788 16.9742 124.591 16.603C123.319 16.2088 122.006 17.0488 121.026 17.9497C120.944 18.0254 120.858 18.0976 120.77 18.166C120.05 18.7239 119.176 19.001 118.292 18.9523C117.407 18.9036 116.564 18.5318 115.9 17.8976C115.236 17.2634 114.789 16.4041 114.633 15.4598C114.477 14.5155 114.621 13.5418 115.041 12.6974C115.462 11.8531 116.133 11.1877 116.947 10.8099C117.761 10.4321 118.669 10.364 119.523 10.6167C119.564 10.6288 119.605 10.6415 119.645 10.6549C120.965 11.0955 122.581 11.4631 123.671 10.5976Z" stroke="white" stroke-width="12" mask="url(#path-7-inside-1_28632_11910)"/>
<ellipse cx="124.603" cy="13.3918" rx="2.02904" ry="2.02904" fill="#FF6C23"/>
</svg>
