<svg width="132" height="20" viewBox="0 0 132 20" fill="none" xmlns="http://www.w3.org/2000/svg">
<g clip-path="url(#clip0_28645_14859)">
<path d="M33.2788 12.5601C33.113 12.1024 32.9093 11.6594 32.6698 11.2358C32.4709 10.8826 32.2075 10.57 31.8935 10.3144L31.8316 10.2691C31.9018 10.2405 31.9704 10.2087 32.0374 10.1751C32.4239 9.99456 32.7774 9.75 33.083 9.45169C33.3808 9.15593 33.6163 8.80321 33.7757 8.41443C33.9404 8.00442 34.0229 7.56579 34.0182 7.12373C34.0318 6.60791 33.9294 6.09565 33.7188 5.62491C33.5323 5.22621 33.2604 4.87374 32.9224 4.59268C32.5938 4.32301 32.2199 4.11441 31.8182 3.9767C31.425 3.84123 31.0208 3.74015 30.6103 3.67459C30.2039 3.60944 29.7936 3.57131 29.3822 3.56045C28.9874 3.55038 28.6244 3.54199 28.2881 3.54199H24.9805V16.6941H26.9379V11.0579H29.0158C29.3389 11.0515 29.6616 11.0819 29.9778 11.1486C30.1861 11.1926 30.3817 11.2832 30.55 11.4138C30.7264 11.5584 30.872 11.737 30.9783 11.9391C31.1433 12.2499 31.2853 12.5725 31.4033 12.9042L32.7852 16.6991H34.8899L33.9898 14.3493C33.7004 13.6595 33.4661 13.0586 33.2788 12.5601ZM31.1038 8.79711C30.8036 8.96228 30.4778 9.07575 30.1401 9.13279C29.7598 9.19688 29.3748 9.22944 28.9891 9.23014H26.963V5.37147H29.0644C29.4896 5.36801 29.9143 5.40001 30.3342 5.46713C30.656 5.51419 30.9666 5.6194 31.251 5.77764C31.48 5.90659 31.6683 6.0973 31.7948 6.32816C31.9403 6.62218 32.0088 6.94853 31.9939 7.27647C32.0084 7.60222 31.9269 7.92504 31.7596 8.20463C31.5957 8.45257 31.3733 8.65608 31.1122 8.79711H31.1038Z" fill="white"/>
<path d="M42.3853 8.10698C42.1612 7.88405 41.9105 7.68958 41.6391 7.52792C41.3292 7.34298 40.9954 7.20178 40.647 7.10832C40.2545 7.00832 39.8507 6.9598 39.4458 6.96398C38.7576 6.94879 38.0752 7.09295 37.4515 7.38526C36.9044 7.65257 36.4202 8.03361 36.0311 8.50308C35.6536 8.96815 35.3695 9.50223 35.1946 10.0758C35.0139 10.648 34.922 11.2446 34.9219 11.8448C34.9223 12.437 35.0051 13.0262 35.1678 13.5954C35.3335 14.1822 35.6051 14.7334 35.9692 15.2218C36.3457 15.719 36.8251 16.1285 37.3746 16.4218C38.0063 16.7472 38.7091 16.9088 39.419 16.8918C39.8813 16.8944 40.341 16.823 40.7809 16.6803C41.1745 16.5523 41.5484 16.3698 41.8918 16.1382C42.053 16.0283 42.2067 15.9078 42.3519 15.7773V16.6988H44.2775V7.17378H42.4087L42.3853 8.10698ZM36.9345 10.7152C37.0359 10.3421 37.2061 9.99142 37.4365 9.68133C37.6629 9.37765 37.9523 9.12684 38.2847 8.94619C38.6702 8.75157 39.0981 8.65693 39.5294 8.67093C39.986 8.65488 40.4403 8.74327 40.8578 8.9294C41.1866 9.08679 41.4733 9.32036 41.6944 9.61084C41.9183 9.9133 42.0845 10.2547 42.1846 10.6179C42.2956 11.0195 42.3679 11.431 42.4004 11.8465V12.0412C42.4112 12.5264 42.3353 13.0095 42.1762 13.4678C42.0473 13.8276 41.8457 14.1568 41.5839 14.4346C41.3418 14.685 41.0468 14.8777 40.7206 14.9986C40.3647 15.1282 39.9884 15.193 39.6097 15.1899C39.1155 15.2119 38.6236 15.111 38.1776 14.8962C37.8435 14.7183 37.5566 14.4628 37.3411 14.151C37.128 13.8349 36.978 13.4803 36.8994 13.107C36.8178 12.7065 36.7757 12.2989 36.7739 11.8901C36.7709 11.4928 36.825 11.0971 36.9345 10.7152Z" fill="white"/>
<path d="M53.7745 15.2187C53.7745 14.8948 53.7745 14.5474 53.7745 14.1781V3.10059H51.8639V7.95121C51.6784 7.77364 51.4723 7.61922 51.2499 7.49132C50.5908 7.12681 49.8474 6.94382 49.095 6.96094C48.4351 6.94792 47.7817 7.09352 47.1894 7.38558C46.655 7.65737 46.1872 8.04424 45.8192 8.51851C45.4503 9.00139 45.1756 9.54975 45.0094 10.1348C44.835 10.7449 44.7477 11.3767 44.7501 12.0113C44.7468 12.6381 44.8279 13.2625 44.991 13.8676C45.1439 14.4327 45.4053 14.9623 45.7606 15.4269C46.1186 15.8833 46.5766 16.2509 47.099 16.5011C47.7326 16.7794 48.4199 16.9128 49.1113 16.8916C49.8026 16.8704 50.4805 16.6952 51.0959 16.3785C51.3865 16.2165 51.6529 16.0142 51.8873 15.7777L51.9124 16.7025H53.818L53.7946 16.2476C53.7946 15.88 53.7762 15.536 53.7745 15.2187ZM49.2405 15.2003C48.8309 15.2149 48.4239 15.1297 48.0544 14.9519C47.7487 14.7941 47.4862 14.5636 47.2898 14.2805C47.0799 13.9759 46.9295 13.6342 46.8464 13.2735C46.7488 12.8554 46.6999 12.4273 46.7009 11.9979C46.7008 11.5522 46.757 11.1084 46.8682 10.677C46.9625 10.3001 47.1253 9.94391 47.3483 9.62627C47.5554 9.33679 47.8277 9.10045 48.143 8.93644C48.507 8.75764 48.909 8.67064 49.3142 8.683C49.6804 8.67623 50.0438 8.74835 50.3799 8.89448C50.6831 9.03154 50.9519 9.23516 51.1662 9.49031C51.3992 9.77502 51.5753 10.1021 51.6849 10.4537C51.8157 10.8838 51.8789 11.3317 51.8722 11.7814C51.8768 12.2649 51.8206 12.747 51.7049 13.2164C51.6094 13.603 51.442 13.968 51.2114 14.2923C51.0008 14.5764 50.7262 14.8064 50.41 14.9636C50.0432 15.1308 49.6432 15.2117 49.2405 15.2003Z" fill="white"/>
<path d="M57.1204 7.17383H55.2148V16.6972H57.1204V7.17383Z" fill="white"/>
<path d="M57.1077 3.35938H55.2773V5.27109H57.1077V3.35938Z" fill="white"/>
<path d="M66.8698 14.8895C66.8698 14.5538 66.8698 14.3507 66.8698 14.2635V7.17383H64.9575V12.7126C64.9603 13.0555 64.9037 13.3962 64.7902 13.7196C64.6921 14.0079 64.538 14.2737 64.3368 14.5018C64.1308 14.7213 63.8796 14.8932 63.6007 15.0053C63.2707 15.1385 62.9172 15.2031 62.5617 15.195C62.2289 15.2043 61.8972 15.1526 61.583 15.0422C61.3583 14.9592 61.1589 14.8193 61.0041 14.6361C60.8473 14.4369 60.741 14.2025 60.6946 13.9529C60.6219 13.5856 60.5799 13.2128 60.5691 12.8385V7.17383H58.6602V12.9241C58.6612 13.3755 58.7095 13.8255 58.804 14.2668C58.9001 14.7293 59.0879 15.1676 59.3561 15.5558C59.6409 15.9616 60.0199 16.2917 60.4603 16.5176C61.0007 16.7824 61.5976 16.9103 62.1986 16.8902C62.9441 16.9128 63.6824 16.7392 64.3401 16.3867C64.5637 16.2569 64.7709 16.1009 64.9575 15.9217V16.7072H66.9166L66.9032 16.2625C66.8882 15.675 66.8781 15.2202 66.8698 14.8895Z" fill="white"/>
<path d="M74.6854 12.3116C74.5292 12.1273 74.3472 11.9667 74.145 11.8349C73.9784 11.7287 73.8058 11.6323 73.628 11.5462C73.2346 11.3506 72.8282 11.1823 72.4117 11.0427C72.0453 10.9269 71.7057 10.8262 71.4079 10.749C71.1101 10.6718 70.8525 10.6046 70.6266 10.5392C70.4644 10.497 70.3093 10.4308 70.1665 10.3428C70.0777 10.2852 70.006 10.2046 69.9591 10.1095C69.8965 9.96002 69.8696 9.79795 69.8804 9.63619C69.8777 9.50793 69.9101 9.38137 69.9741 9.2703C70.0459 9.14878 70.1458 9.04633 70.2652 8.97154C70.4256 8.87043 70.6014 8.79617 70.7855 8.75167C71.0212 8.69544 71.2627 8.66783 71.5049 8.66942C71.9495 8.66536 72.3933 8.70527 72.83 8.78859C73.1356 8.83994 73.4306 8.94144 73.7033 9.08903L74.1534 9.36597L74.6871 7.90742L74.4311 7.72112C74.0351 7.42612 73.5774 7.22525 73.0927 7.13367C72.5523 7.02111 72.0017 6.96486 71.4497 6.96583C71.0329 6.96573 70.6177 7.01702 70.2134 7.11857C69.816 7.21586 69.4377 7.37925 69.0941 7.60195C68.756 7.82016 68.4704 8.11077 68.2576 8.45291C68.032 8.82594 67.916 9.25531 67.923 9.69158C67.913 10.0823 67.9931 10.47 68.1572 10.8245C68.3131 11.1402 68.5378 11.4167 68.8147 11.6335C69.1035 11.8582 69.4223 12.0412 69.7616 12.1773C70.0962 12.3166 70.4861 12.4509 70.916 12.5835C71.3008 12.6887 71.6539 12.7899 71.9751 12.8873C72.2404 12.9642 72.4967 13.0694 72.7397 13.2011C72.905 13.2882 73.0477 13.413 73.1562 13.5654C73.2374 13.7119 73.2809 13.8765 73.2826 14.0441C73.2844 14.2118 73.2444 14.3772 73.1663 14.5254C73.0789 14.6655 72.9574 14.781 72.8133 14.8611C72.6145 14.9762 72.3988 15.059 72.1742 15.1061C71.6435 15.2123 71.0988 15.2276 70.563 15.1515C70.3365 15.1221 70.1127 15.0743 69.8938 15.0088C69.6989 14.9508 69.5105 14.8726 69.3317 14.7755C69.1918 14.7029 69.066 14.6057 68.9603 14.4885L68.4583 13.9245L67.8828 15.6701L68.0501 15.8564C68.2417 16.0627 68.4683 16.2331 68.7193 16.3599C68.9742 16.4949 69.2429 16.6018 69.5207 16.6788C69.8115 16.7579 70.108 16.814 70.4074 16.8467C70.7153 16.8799 71.0247 16.8961 71.3343 16.8953C71.8005 16.8946 72.265 16.8383 72.7179 16.7275C73.1605 16.6242 73.5824 16.4465 73.966 16.2022C74.3324 15.9626 74.6424 15.6459 74.8745 15.274C75.1212 14.8703 75.2489 14.4047 75.2425 13.9313C75.2477 13.6173 75.1955 13.305 75.0886 13.0098C74.9965 12.7549 74.86 12.5185 74.6854 12.3116Z" fill="white"/>
<path d="M75.0273 4.93158H79.0426V16.6973H81.0403V4.93158H85.0455V3.10547H75.0273V4.93158Z" fill="white"/>
<path d="M93.5456 10.4704C93.515 10.0537 93.441 9.64132 93.3248 9.24008C93.2057 8.82495 93.0068 8.43722 92.7392 8.09876C92.4535 7.74293 92.0885 7.45948 91.6735 7.2713C91.1731 7.05344 90.631 6.94859 90.0857 6.96415C89.3528 6.94522 88.6281 7.12249 87.9861 7.47774C87.7368 7.62591 87.5064 7.80402 87.3001 8.00812V3.10547H85.3945V16.7006H87.3001V11.2978C87.293 10.9366 87.3444 10.5767 87.4524 10.232C87.5485 9.92962 87.7019 9.64867 87.9041 9.40456C88.1049 9.17391 88.354 8.99053 88.6335 8.86747C88.9653 8.72756 89.3228 8.6595 89.6825 8.66774C90.335 8.66774 90.8052 8.83558 91.1113 9.17126C91.4175 9.50695 91.6132 10.0474 91.6434 10.7204C91.6434 10.7204 91.6434 10.8564 91.6434 11.1132C91.6434 11.37 91.6434 11.5865 91.6434 11.7846V16.6939H93.5489V10.8497L93.5456 10.4704Z" fill="white"/>
<path d="M102.366 8.37131C102.007 7.92388 101.549 7.56786 101.027 7.33237C100.42 7.08387 99.7702 6.959 99.1147 6.96505C98.4592 6.9711 97.8115 7.10795 97.2093 7.36762C96.6498 7.62461 96.1513 7.99824 95.747 8.46363C95.3423 8.93567 95.0321 9.48162 94.8336 10.0715C94.4201 11.3249 94.4201 12.6786 94.8336 13.9319C95.0298 14.5119 95.3424 15.0454 95.7521 15.4995C96.165 15.9478 96.6703 16.3006 97.2327 16.5334C97.8535 16.7862 98.5186 16.9112 99.1885 16.901C99.8673 16.9091 100.544 16.8175 101.196 16.6291C101.805 16.4474 102.364 16.1288 102.831 15.6976L103.045 15.5012L102.402 13.7842L101.936 14.2676C101.625 14.5754 101.251 14.8115 100.84 14.9591C100.345 15.1312 99.824 15.2136 99.3006 15.2025C98.8937 15.2091 98.4893 15.1373 98.1094 14.991C97.7791 14.8616 97.4809 14.6615 97.2356 14.4047C96.9903 14.1478 96.8038 13.8404 96.689 13.5039C96.5813 13.1984 96.5177 12.8791 96.4999 12.5556H103.378V12.1226C103.378 12.0991 103.378 12.0655 103.378 12.0219C103.378 11.9782 103.378 11.9027 103.378 11.854C103.387 11.2055 103.31 10.5586 103.149 9.93056C102.997 9.36252 102.73 8.8318 102.366 8.37131ZM100.841 9.36326C101.03 9.60583 101.171 9.88284 101.255 10.179C101.316 10.391 101.36 10.6077 101.387 10.8268H96.5769C96.6196 10.6328 96.6795 10.4429 96.7559 10.2595C96.8779 9.95081 97.0541 9.66656 97.2762 9.42032C97.4941 9.18474 97.7584 8.99726 98.0525 8.8698C98.3886 8.72844 98.7505 8.65925 99.1149 8.66672C99.4745 8.6567 99.8324 8.71949 100.167 8.85134C100.429 8.96558 100.661 9.1411 100.841 9.36326Z" fill="white"/>
<path d="M118.065 9.34563C117.988 9.04842 117.876 8.76159 117.731 8.49131C117.57 8.19427 117.357 7.92876 117.102 7.70749C116.819 7.47049 116.496 7.28682 116.148 7.16537C115.724 7.02175 115.278 6.95248 114.83 6.9606C114.42 6.95824 114.012 7.00501 113.613 7.09991C113.241 7.18893 112.885 7.33379 112.556 7.52958C112.231 7.72609 111.943 7.97833 111.704 8.2748C111.661 8.32851 111.619 8.3839 111.581 8.44264C111.571 8.42753 111.562 8.41243 111.552 8.399C111.359 8.10029 111.114 7.83925 110.828 7.62861C110.534 7.41409 110.207 7.24808 109.861 7.13683C109.141 6.92512 108.378 6.90948 107.651 7.09152C107.306 7.17494 106.974 7.30421 106.664 7.47587C106.434 7.60343 106.221 7.75903 106.029 7.93912L106.011 7.17711H104.059L104.075 7.62357C104.097 8.24123 104.109 8.73301 104.114 9.08715C104.119 9.4413 104.114 9.67124 104.114 9.76691V16.6937H106.019V11.2842C106.019 10.9224 106.076 10.5627 106.187 10.2184C106.28 9.9143 106.428 9.62989 106.623 9.3792C106.801 9.15368 107.031 8.97461 107.293 8.85721C107.599 8.72322 107.931 8.65792 108.265 8.66587C108.92 8.66587 109.397 8.83371 109.725 9.19457C110.053 9.55543 110.227 10.1244 110.227 10.873V16.6937H112.133V11.2842C112.132 10.9317 112.189 10.5814 112.3 10.2469C112.396 9.94206 112.548 9.65758 112.747 9.40773C112.933 9.17654 113.17 8.99113 113.439 8.8656C113.743 8.72491 114.075 8.65601 114.41 8.66419C114.752 8.64866 115.094 8.70586 115.414 8.83203C115.637 8.93364 115.826 9.09807 115.957 9.30535C116.116 9.57235 116.219 9.86857 116.262 10.1764C116.33 10.6207 116.362 11.0697 116.357 11.5192V16.6937H118.263V10.8713C118.263 10.6699 118.251 10.4366 118.231 10.1781C118.197 9.89681 118.141 9.61851 118.065 9.34563Z" fill="white"/>
<path d="M127.701 9.93056C127.551 9.36345 127.287 8.83293 126.926 8.37131C126.569 7.92351 126.11 7.56742 125.588 7.33237C124.981 7.08387 124.331 6.959 123.676 6.96505C123.02 6.9711 122.372 7.10795 121.77 7.36762C121.211 7.62461 120.712 7.99824 120.308 8.46363C119.903 8.93567 119.593 9.48162 119.394 10.0715C118.983 11.3253 118.983 12.6782 119.394 13.9319C119.591 14.5119 119.903 15.0454 120.313 15.4995C120.726 15.9474 121.231 16.3002 121.794 16.5335C122.415 16.7859 123.081 16.9109 123.751 16.901C124.43 16.9091 125.106 16.8175 125.759 16.6291C126.367 16.4474 126.926 16.1288 127.393 15.6976L127.607 15.5012L126.967 13.7842L126.496 14.2676C126.185 14.573 125.811 14.8067 125.401 14.9524C124.905 15.1271 124.383 15.2118 123.858 15.2025C123.451 15.2091 123.047 15.1373 122.667 14.991C122.339 14.86 122.042 14.661 121.795 14.4069C121.552 14.1476 121.365 13.84 121.246 13.5039C121.139 13.1985 121.076 12.8791 121.059 12.5556H127.935V12.1226C127.935 12.0991 127.935 12.0655 127.935 12.0219C127.935 11.9782 127.935 11.9027 127.935 11.854C127.945 11.2052 127.866 10.558 127.701 9.93056ZM125.401 9.36326C125.589 9.60592 125.729 9.88294 125.812 10.179C125.874 10.3908 125.918 10.6076 125.944 10.8268H121.141C121.184 10.633 121.243 10.4432 121.318 10.2595C121.441 9.95072 121.618 9.66648 121.84 9.42032C122.058 9.18515 122.322 8.99771 122.615 8.8698C122.951 8.72877 123.313 8.6596 123.677 8.66672C124.037 8.65637 124.395 8.71918 124.73 8.85134C124.991 8.96603 125.221 9.14153 125.401 9.36326Z" fill="white"/>
<path d="M6.67578 6.45193C7.21027 5.79396 7.87219 5.25154 8.62153 4.85744C10.1089 4.0283 11.7133 3.61038 13.3981 3.43079C14.6662 3.29651 16.1117 3.15888 17.2996 3.7329C17.8858 4.01924 18.3751 4.47218 18.7066 5.03535C18.8739 5.30222 19.5816 6.75573 18.7066 6.2606C15.2133 4.30021 11.6313 4.27167 7.98243 5.75707C7.53071 5.94673 7.11914 6.22703 6.67578 6.45193Z" fill="#0954C0"/>
<path d="M16.3188 2.64893C16.2493 2.67197 16.1753 2.6783 16.1029 2.66739C15.2061 2.60751 14.3059 2.61986 13.411 2.70432C12.031 2.8232 10.6771 3.15201 9.39571 3.67948C8.24465 4.10076 6.85938 4.98864 6.85938 4.98864C7.64673 3.86051 8.69349 2.93935 9.91101 2.30317C11.4167 1.48746 15.432 0.0893444 16.4024 2.42066C16.4204 2.46221 16.4217 2.50909 16.4061 2.55159C16.3905 2.59409 16.3593 2.62895 16.3188 2.64893Z" fill="#0954C0"/>
<path d="M6.42578 4.21769C6.68884 3.4666 7.06949 2.76236 7.55341 2.13142C8.15571 1.29221 8.932 0.436219 9.94754 0.11732C10.4611 -0.0404088 11.01 -0.0404088 11.5235 0.11732C11.8331 0.207955 12.7382 0.533567 11.9769 0.734977C10.4026 1.13905 8.94188 1.90048 7.70733 2.96056C7.25394 3.35666 6.8591 3.79473 6.42578 4.21769Z" fill="#0954C0"/>
<path d="M13.4922 6.65039C14.1516 7.1821 14.6964 7.8428 15.0933 8.59232C15.9298 10.0777 16.3598 11.684 16.5522 13.3708C16.6977 14.6413 16.8433 16.0898 16.2811 17.2848C15.9992 17.8741 15.5529 18.3685 14.9963 18.7081C14.7319 18.876 13.2881 19.5994 13.7749 18.7081C15.7039 15.1835 15.7073 11.6 14.1915 7.94948C14.0025 7.50135 13.718 7.09685 13.4922 6.65039Z" fill="#FCB615"/>
<path d="M17.5787 16.3817C17.5585 16.3915 17.5366 16.3972 17.5142 16.3984C17.4919 16.3995 17.4695 16.3962 17.4484 16.3885C17.4273 16.3808 17.408 16.369 17.3916 16.3537C17.3752 16.3384 17.362 16.3199 17.3528 16.2994C17.3306 16.2284 17.3243 16.1533 17.3344 16.0795C17.3885 15.1798 17.3689 14.2772 17.2759 13.3807C17.1478 11.9993 16.8092 10.6459 16.272 9.36757C15.8437 8.20946 14.9453 6.82812 14.9453 6.82812C16.0774 7.60876 17.0049 8.65209 17.649 9.86941C18.4721 11.3682 19.8975 15.3796 17.5787 16.3817Z" fill="#FCB615"/>
<path d="M15.7266 6.38672C16.4772 6.64324 17.1817 7.01956 17.8128 7.50119C18.6494 8.10038 19.5127 8.87413 19.8372 9.88789C19.9969 10.4009 20.0021 10.9497 19.8523 11.4656C19.7636 11.7761 19.4457 12.6875 19.2383 11.9255C18.8223 10.3495 18.0519 8.88995 16.9864 7.65896C16.5882 7.21753 16.1448 6.81304 15.7266 6.38672Z" fill="#FCB615"/>
<path d="M13.3446 13.4922C12.8193 14.1578 12.1648 14.7094 11.4206 15.1135C9.94665 15.9527 8.34555 16.4042 6.66414 16.609C5.39765 16.7634 3.95548 16.9212 2.75759 16.3656C2.16792 16.0878 1.67193 15.6433 1.33048 15.0867C1.16318 14.8232 0.430383 13.3797 1.31542 13.8614C4.8355 15.7765 8.41749 15.7497 12.048 14.2022C12.4997 14.0091 12.9029 13.7205 13.3446 13.4922Z" fill="#8BC53F"/>
<path d="M13.1798 14.9561C12.4102 16.0958 11.377 17.0317 10.1683 17.6835C8.67594 18.521 4.68574 19.9728 3.68191 17.6617C3.67178 17.6415 3.66583 17.6194 3.6644 17.5969C3.66297 17.5743 3.6661 17.5517 3.6736 17.5304C3.6811 17.5091 3.69282 17.4895 3.70804 17.4728C3.72327 17.4561 3.7417 17.4427 3.76222 17.4334C3.83161 17.4099 3.90538 17.4025 3.97804 17.4116C4.87592 17.4586 5.77611 17.4333 6.66996 17.336C8.04636 17.1962 9.39353 16.847 10.6652 16.3005C11.8096 15.8624 13.1798 14.9561 13.1798 14.9561Z" fill="#8BC53F"/>
<path d="M13.6199 15.7227C13.3684 16.4767 12.9985 17.1855 12.524 17.8224C11.9318 18.6616 11.1705 19.5377 10.1583 19.8683C9.64789 20.0337 9.10005 20.0437 8.584 19.8969C8.27448 19.8113 7.36435 19.4974 8.12224 19.2859C9.69095 18.8572 11.1411 18.0741 12.3617 16.9966C12.8051 16.6005 13.1999 16.1523 13.6199 15.7227Z" fill="#8BC53F"/>
<path d="M6.52654 13.3918C5.85916 12.8702 5.30423 12.2181 4.89532 11.4751C4.03872 10.0014 3.58198 8.40356 3.36449 6.7134C3.19718 5.44452 3.02988 3.9994 3.58198 2.7943C3.85697 2.20072 4.29893 1.70074 4.8535 1.3559C5.11616 1.18805 6.54829 0.441159 6.07649 1.3324C4.18428 4.87553 4.23782 8.46734 5.80546 12.0944C5.99953 12.5476 6.29064 12.9487 6.52654 13.3918Z" fill="#EF5226"/>
<path d="M5.05682 13.2355C3.91566 12.4722 2.97499 11.4439 2.3147 10.2379C1.47818 8.74746 -0.0141723 4.75786 2.29128 3.72396C2.31141 3.7138 2.33338 3.70782 2.35587 3.70639C2.37836 3.70496 2.4009 3.7081 2.42215 3.71562C2.4434 3.72315 2.46292 3.7349 2.47953 3.75018C2.49614 3.76545 2.5095 3.78394 2.51881 3.80452C2.54385 3.87609 2.55187 3.95253 2.54224 4.02775C2.50296 4.92399 2.53429 5.82193 2.63593 6.71322C2.78463 8.09262 3.14173 9.44128 3.69496 10.7129C4.14334 11.8693 5.05682 13.2355 5.05682 13.2355Z" fill="#EF5226"/>
<path d="M4.2985 13.6855C3.54468 13.4389 2.8348 13.0734 2.19549 12.6029C1.34726 12.0155 0.475602 11.2552 0.137647 10.238C-0.0310267 9.72769 -0.0450005 9.17863 0.0974943 8.66032C0.182819 8.34981 0.487313 7.43508 0.706482 8.19204C1.14108 9.76378 1.92986 11.2143 3.01193 12.4317C3.41848 12.8748 3.86853 13.2676 4.2985 13.6855Z" fill="#EF5226"/>
</g>
<defs>
<clipPath id="clip0_28645_14859">
<rect width="131.2" height="20" fill="white"/>
</clipPath>
</defs>
</svg>
