<svg width="64" height="64" viewBox="0 0 64 64" fill="none" xmlns="http://www.w3.org/2000/svg">
<path d="M8 32C8 36.7468 9.40758 41.3869 12.0447 45.3337C14.6819 49.2805 18.4302 52.3566 22.8156 54.1731C27.201 55.9896 32.0266 56.4649 36.6822 55.5389C41.3377 54.6128 45.6141 52.327 48.9706 48.9706C52.327 45.6141 54.6128 41.3377 55.5389 36.6822C56.4649 32.0266 55.9896 27.201 54.1731 22.8156C52.3566 18.4302 49.2805 14.6819 45.3337 12.0447C41.3869 9.40758 36.7468 8 32 8C25.2905 8.02524 18.8506 10.6433 14.0267 15.3067L8 21.3333" stroke="#FF6C23" stroke-width="4" stroke-linecap="round" stroke-linejoin="round"/>
<path d="M8 8V21.3333H21.3333" stroke="#FF6C23" stroke-width="4" stroke-linecap="round" stroke-linejoin="round"/>
</svg>
