<svg width="64" height="64" viewBox="0 0 64 64" fill="none" xmlns="http://www.w3.org/2000/svg">
<path d="M32 21.3335C45.2548 21.3335 56 17.7518 56 13.3335C56 8.91522 45.2548 5.3335 32 5.3335C18.7452 5.3335 8 8.91522 8 13.3335C8 17.7518 18.7452 21.3335 32 21.3335Z" stroke="#FF6C23" stroke-width="4" stroke-linecap="round" stroke-linejoin="round"/>
<path d="M8.00018 13.3335V50.6668C7.98533 51.9493 8.89564 53.2141 10.6544 54.3547C12.4131 55.4954 14.9688 56.4783 18.1059 57.2208C21.243 57.9632 24.8696 58.4434 28.6799 58.6208C32.4903 58.7982 36.3728 58.6677 40.0002 58.2402" stroke="#FF6C23" stroke-width="4" stroke-linecap="round" stroke-linejoin="round"/>
<path d="M56 13.3335V21.3335" stroke="#FF6C23" stroke-width="4" stroke-linecap="round" stroke-linejoin="round"/>
<path d="M56 32L48 45.3333H58.6667L50.6667 58.6667" stroke="#FF6C23" stroke-width="4" stroke-linecap="round" stroke-linejoin="round"/>
<path d="M8 32C8.00385 33.2467 8.88183 34.4759 10.5639 35.5895C12.2459 36.7031 14.6855 37.6702 17.6879 38.4136C20.6903 39.1571 24.1725 39.6564 27.8566 39.8716C31.5406 40.0869 35.3247 40.0121 38.9067 39.6533" stroke="#FF6C23" stroke-width="4" stroke-linecap="round" stroke-linejoin="round"/>
</svg>
