<svg width="64" height="64" viewBox="0 0 64 64" fill="none" xmlns="http://www.w3.org/2000/svg">
<path d="M29.3333 21.3335H13.3333C10.3878 21.3335 8 23.7213 8 26.6668V53.3335C8 56.279 10.3878 58.6668 13.3333 58.6668H29.3333C32.2789 58.6668 34.6667 56.279 34.6667 53.3335V26.6668C34.6667 23.7213 32.2789 21.3335 29.3333 21.3335Z" stroke="#FF6C23" stroke-width="4" stroke-linecap="round" stroke-linejoin="round"/>
<path d="M13.332 10.6668C13.332 9.25234 13.8939 7.89579 14.8941 6.89559C15.8943 5.8954 17.2509 5.3335 18.6654 5.3335H50.6654C52.0798 5.3335 53.4364 5.8954 54.4366 6.89559C55.4368 7.89579 55.9987 9.25234 55.9987 10.6668V53.3335C55.9987 54.748 55.4368 56.1045 54.4366 57.1047C53.4364 58.1049 52.0798 58.6668 50.6654 58.6668H44.2654" stroke="#FF6C23" stroke-width="4" stroke-linecap="round" stroke-linejoin="round"/>
<path d="M21.332 48H21.352" stroke="#FF6C23" stroke-width="4" stroke-linecap="round" stroke-linejoin="round"/>
</svg>
