<svg width="64" height="64" viewBox="0 0 64 64" fill="none" xmlns="http://www.w3.org/2000/svg">
<path d="M50.4336 25.2095C50.4336 26.0986 50.4336 26.9877 50.4336 27.8768C53.6746 27.8768 56.9156 27.8768 60.1565 27.8768C60.1565 26.9877 60.1565 26.0986 60.1565 25.2095C56.9156 25.2095 53.6746 25.2095 50.4336 25.2095Z" fill="#FF6C23"/>
<path d="M51.558 31.4312C51.1558 32.2247 50.7537 33.0183 50.3516 33.8119C53.2449 35.2717 56.129 36.7498 59.0223 38.2096C59.4245 37.4161 59.8266 36.6225 60.2288 35.8289C57.3354 34.3691 54.4513 32.8909 51.558 31.4312Z" fill="#FF6C23"/>
<path d="M59.0223 14.8779C56.129 16.3377 53.2449 17.8159 50.3516 19.2757C50.7537 20.0693 51.1558 20.8628 51.558 21.6564C54.4461 20.1844 57.3407 18.7251 60.2288 17.2532C59.8266 16.4614 59.4245 15.6697 59.0223 14.8779Z" fill="#FF6C23"/>
<path d="M36.7018 13.625C28.8068 16.1846 20.9098 18.7385 13.0143 21.2969C12.8642 21.2726 12.7278 21.2083 12.5716 21.2083H6.72266C5.11098 21.2083 3.76953 22.5498 3.76953 24.1615V34.6094C3.76953 36.2211 5.11098 37.5625 6.72266 37.5625H7.66536L14.0404 55.4219H23.4518L17.7695 38.4635C24.0787 39.772 30.3877 41.0809 36.6966 42.3906V42.4479C36.6966 45.2871 39.1069 47.5521 42.0143 47.5521C44.9217 47.5521 47.332 45.2871 47.332 42.4479V13.6875C47.332 10.8483 44.9217 8.57812 42.0251 8.57812C39.1285 8.57812 36.7377 10.8157 36.7018 13.625ZM42.0143 11.2448C43.5533 11.2448 44.6654 12.3452 44.6654 13.6875V42.4479C44.6654 43.7902 43.5533 44.8854 42.0143 44.8854C40.4753 44.8854 39.3633 43.7902 39.3633 42.4479V13.6875C39.3633 12.3452 40.4753 11.2448 42.0143 11.2448ZM36.6966 16.4271V39.6667C29.6498 38.2046 22.6029 36.7427 15.556 35.2812V23.276C22.6029 20.993 29.6501 18.7111 36.6966 16.4271ZM6.72266 23.875H12.5716C12.7521 23.875 12.8581 23.981 12.8581 24.1615V28.0521H6.4362V24.1615C6.4362 23.981 6.54217 23.875 6.72266 23.875ZM6.4362 30.7187H12.8581V34.6094C12.8581 34.7899 12.7521 34.8958 12.5716 34.8958H6.72266C6.54217 34.8958 6.4362 34.7899 6.4362 34.6094V30.7187ZM12.9987 37.474C13.5801 37.5946 14.1621 37.7127 14.7435 37.8333L19.7435 52.7552H15.9206L10.4935 37.5625H12.5716C12.7225 37.5625 12.8534 37.4966 12.9987 37.474Z" fill="#FF6C23"/>
</svg>
