<svg width="64" height="64" viewBox="0 0 64 64" fill="none" xmlns="http://www.w3.org/2000/svg">
<path d="M37.3346 5.33447H16.0013C14.5868 5.33447 13.2303 5.89638 12.2301 6.89657C11.2299 7.89676 10.668 9.25332 10.668 10.6678V53.3345C10.668 54.749 11.2299 56.1055 12.2301 57.1057C13.2303 58.1059 14.5868 58.6678 16.0013 58.6678H48.0013C49.4158 58.6678 50.7723 58.1059 51.7725 57.1057C52.7727 56.1055 53.3346 54.749 53.3346 53.3345V21.3345L37.3346 5.33447Z" stroke="#FF6C23" stroke-width="4" stroke-linecap="round" stroke-linejoin="round"/>
<path d="M37.332 5.33447V21.3345H53.332" stroke="#FF6C23" stroke-width="4" stroke-linecap="round" stroke-linejoin="round"/>
<path d="M42.6654 34.6655H21.332" stroke="#FF6C23" stroke-width="4" stroke-linecap="round" stroke-linejoin="round"/>
<path d="M42.6654 45.3345H21.332" stroke="#FF6C23" stroke-width="4" stroke-linecap="round" stroke-linejoin="round"/>
<path d="M26.6654 24H23.9987H21.332" stroke="#FF6C23" stroke-width="4" stroke-linecap="round" stroke-linejoin="round"/>
</svg>
