<svg width="116" height="19" viewBox="0 0 116 19" fill="none" xmlns="http://www.w3.org/2000/svg">
<mask id="mask0_28639_12232" style="mask-type:luminance" maskUnits="userSpaceOnUse" x="0" y="0" width="116" height="19">
<path d="M115.579 0.307129H0.328125V18.6929H115.579V0.307129Z" fill="white"/>
</mask>
<g mask="url(#mask0_28639_12232)">
<path d="M73.274 8.63453C73.274 8.63453 72.2786 8.87068 71.4365 9.06999L70.1565 9.35973C70.1531 9.35973 70.1481 9.35973 70.1447 9.35973C70.1447 9.01639 70.1699 8.65462 70.2525 8.32132C70.3586 7.89423 70.5911 7.39513 70.9952 7.17572C71.4348 6.93789 71.9705 6.90941 72.4353 7.09366C72.917 7.28292 73.1376 7.74518 73.232 8.22418C73.2589 8.35817 73.2757 8.49216 73.2892 8.62783L73.274 8.63453ZM76.6122 9.35973C76.6122 6.03849 74.5086 4.61151 71.8206 4.61151C68.7821 4.61151 66.8789 6.7034 66.8789 9.37649C66.8789 12.2824 68.4991 14.1749 71.9873 14.1749C73.8737 14.1749 74.9414 13.8433 76.2113 13.2119L75.7279 11.0363C74.7595 11.4684 73.8585 11.733 72.6559 11.733C71.3372 11.733 70.586 11.2356 70.3013 10.306H76.528C76.5784 10.0565 76.6122 9.77343 76.6122 9.35973Z" fill="#92003B"/>
<path d="M45.3287 8.63453C45.3287 8.63453 44.3332 8.87068 43.491 9.06999L42.2111 9.35973C42.2077 9.35973 42.2026 9.35973 42.1993 9.35973C42.1993 9.01639 42.2246 8.65462 42.307 8.32132C42.4132 7.89423 42.6456 7.39513 43.0498 7.17572C43.4895 6.93789 44.025 6.90941 44.4899 7.09366C44.9715 7.28292 45.1922 7.74518 45.2865 8.22418C45.3135 8.35817 45.3302 8.49216 45.3437 8.62783L45.3287 8.63453ZM48.6667 9.35973C48.6667 6.03849 46.5631 4.61151 43.8751 4.61151C40.8368 4.61151 38.9336 6.7034 38.9336 9.37649C38.9336 12.2824 40.5538 14.1749 44.0418 14.1749C45.9282 14.1749 46.996 13.8433 48.2659 13.2119L47.7826 11.0363C46.8141 11.4684 45.913 11.733 44.7104 11.733C43.3917 11.733 42.6405 11.2356 42.356 10.306H48.5826C48.6331 10.0565 48.6667 9.77343 48.6667 9.35973Z" fill="#92003B"/>
<path d="M37.6269 2.17126H34.543V13.8417H37.6269V2.17126Z" fill="#92003B"/>
<path d="M77.2617 4.90965H80.5005L81.1826 6.97308C81.6088 5.95477 82.5688 4.64502 84.2715 4.64502C86.6092 4.64502 87.8774 5.82413 87.8774 8.86231V13.8433H84.6387C84.6387 12.805 84.6404 11.7682 84.642 10.7298C84.642 10.2541 84.6336 9.77846 84.6404 9.30281C84.6453 8.864 84.6773 8.4101 84.4416 8.01652C84.2815 7.75021 84.0206 7.55425 83.7393 7.42027C83.1683 7.14894 82.5485 7.15564 81.9876 7.44707C81.8496 7.51908 81.1826 7.8775 81.1826 8.04331V13.8433H77.9438V7.31978L77.2617 4.90965Z" fill="#92003B"/>
<path d="M90.3254 7.25112H88.8398V4.90967H90.3254V3.44585L93.5641 2.68713V4.90967H96.8198V7.25112H93.5641V9.87396C93.5641 10.904 94.0645 11.3847 94.8157 11.3847C95.5836 11.3847 96.0181 11.2842 96.6682 11.0698L97.0522 13.4933C96.168 13.8752 95.0665 14.0578 93.9465 14.0578C91.592 14.0578 90.3237 12.9456 90.3237 10.7868V7.25112H90.3254Z" fill="#92003B"/>
<path d="M102.879 11.517C104.064 11.517 104.765 10.6695 104.765 9.30951C104.765 7.94952 104.098 7.16737 102.929 7.16737C101.743 7.16737 101.06 7.94784 101.06 9.35807C101.06 10.6879 101.727 11.517 102.879 11.517ZM102.912 4.56128C105.951 4.56128 108.17 6.45388 108.17 9.39158C108.17 12.346 105.951 14.123 102.879 14.123C99.8233 14.123 97.6523 12.2975 97.6523 9.39158C97.6523 6.45388 99.8065 4.56128 102.912 4.56128Z" fill="#92003B"/>
<path d="M63.9764 4.88285C63.4038 4.64837 62.7553 4.56128 62.1354 4.65004C61.8205 4.69527 61.5123 4.78571 61.226 4.9264C60.4411 5.31161 59.8298 6.19091 59.5013 6.97475C59.2857 6.072 58.6575 5.26137 57.7396 4.88453C57.167 4.65004 56.5185 4.56296 55.8987 4.65172C55.5838 4.69695 55.2755 4.78738 54.9892 4.92807C54.206 5.31161 53.5963 6.18756 53.2663 6.96972V6.91278L52.6061 4.913H49.3672L50.0494 7.32312V13.845H53.2663V8.01484C53.278 7.97129 53.4212 7.8909 53.4464 7.87247C53.8237 7.60617 54.2667 7.3315 54.7382 7.298C55.22 7.26283 55.6949 7.50568 55.9812 7.88587C56.0116 7.92774 56.0402 7.96962 56.0671 8.01316C56.303 8.40676 56.271 8.86064 56.2659 9.29945C56.2609 9.77512 56.2675 10.2508 56.2675 10.7264C56.2659 11.7648 56.2642 12.8016 56.2642 13.84H59.5031V8.86064C59.5031 8.83553 59.5031 8.8104 59.5031 8.78695V8.01819C59.5097 7.97632 59.658 7.89257 59.685 7.87415C60.0622 7.60784 60.5051 7.33316 60.9767 7.29967C61.4584 7.2645 61.9334 7.50736 62.2197 7.88755C62.25 7.92943 62.2787 7.97129 62.3056 8.01484C62.5414 8.40843 62.5094 8.86232 62.5043 9.30113C62.4992 9.77679 62.506 10.2525 62.506 10.7281C62.5043 11.7665 62.5027 12.8032 62.5027 13.8417H65.7414V8.86064C65.7414 7.40017 65.5309 5.5193 63.9764 4.88285Z" fill="#92003B"/>
<path d="M115.83 4.64502C114.127 4.64502 113.169 5.95644 112.741 6.97308L112.059 4.90965H108.82L109.502 7.31978V13.8417H112.741V7.81553C113.203 7.73514 115.707 8.19405 116.182 8.36656V4.65675C116.068 4.65005 115.951 4.64502 115.83 4.64502Z" fill="#92003B"/>
<path d="M29.899 8.63453C29.899 8.63453 28.9036 8.87068 28.0615 9.06999L26.7814 9.35973C26.7781 9.35973 26.773 9.35973 26.7697 9.35973C26.7697 9.01639 26.7949 8.65462 26.8775 8.32132C26.9836 7.89423 27.2161 7.39513 27.6202 7.17572C28.0598 6.93789 28.5955 6.90941 29.0603 7.09366C29.542 7.28292 29.7625 7.74518 29.857 8.22418C29.8839 8.35817 29.9007 8.49216 29.9142 8.62783L29.899 8.63453ZM33.2372 9.35973C33.2372 6.03849 31.1335 4.61151 28.4456 4.61151C25.4071 4.61151 23.5039 6.7034 23.5039 9.37649C23.5039 12.2824 25.1241 14.1749 28.6123 14.1749C30.4987 14.1749 31.5664 13.8433 32.8363 13.2119L32.3529 11.0363C31.3845 11.4684 30.4835 11.733 29.2809 11.733C27.9622 11.733 27.211 11.2356 26.9263 10.306H33.1529C33.2034 10.0565 33.2372 9.77343 33.2372 9.35973Z" fill="#92003B"/>
<path d="M9.57965 0.307129C4.46967 0.307129 0.328125 4.42561 0.328125 9.50713C0.328125 14.587 4.46967 18.7072 9.57965 18.7072C14.6896 18.7072 18.8311 14.5886 18.8311 9.50713C18.8295 4.42561 14.688 0.307129 9.57965 0.307129ZM7.2672 13.3391H5.7261V5.67337H7.2672V13.3391ZM13.4332 13.3391H8.80827V11.8067H13.4332V13.3391ZM13.4332 10.2725H8.80827V8.74005H13.4332V10.2725ZM13.4332 7.20588H8.80827V5.67337H13.4332V7.20588Z" fill="#92003B"/>
</g>
</svg>
