<svg width="365" height="91" viewBox="0 0 365 91" fill="none" xmlns="http://www.w3.org/2000/svg">
<g clip-path="url(#clip0_28637_12169)">
<path d="M89.2101 84.9112L85.5898 70.754H87.754L90.4033 81.1393L93.0427 70.754H94.954L97.6033 81.1393L100.253 70.754H102.417L98.8168 84.9112H96.3999L94.0033 75.5371L91.6067 84.9112H89.2101ZM107.94 85.174C107.009 85.174 106.16 84.9347 105.391 84.456C104.63 83.9775 104.019 83.3371 103.561 82.5348C103.109 81.7257 102.883 80.8325 102.883 79.8549C102.883 79.1134 103.015 78.4224 103.278 77.7819C103.541 77.1347 103.902 76.5686 104.36 76.083C104.825 75.591 105.364 75.2067 105.978 74.9303C106.591 74.6539 107.245 74.5158 107.94 74.5158C108.87 74.5158 109.716 74.7551 110.478 75.2336C111.246 75.7123 111.857 76.3562 112.308 77.1651C112.767 77.9741 112.996 78.8707 112.996 79.8549C112.996 80.5898 112.864 81.2774 112.602 81.9179C112.339 82.5583 111.974 83.1247 111.509 83.6167C111.051 84.1021 110.515 84.4832 109.901 84.7595C109.295 85.0359 108.641 85.174 107.94 85.174ZM107.94 83.0708C108.499 83.0708 109.002 82.9224 109.446 82.6258C109.891 82.3291 110.242 81.9381 110.498 81.4528C110.761 80.9607 110.893 80.428 110.893 79.8549C110.893 79.2685 110.758 78.7291 110.488 78.2371C110.225 77.7448 109.871 77.3538 109.426 77.0641C108.981 76.7674 108.486 76.619 107.94 76.619C107.387 76.619 106.885 76.7674 106.433 77.0641C105.988 77.3607 105.634 77.755 105.371 78.2472C105.115 78.7392 104.987 79.2752 104.987 79.8549C104.987 80.4549 105.122 80.9978 105.391 81.4831C105.661 81.9685 106.018 82.356 106.463 82.646C106.915 82.9291 107.407 83.0708 107.94 83.0708ZM119.666 85.174C118.736 85.174 117.886 84.9347 117.118 84.456C116.356 83.9775 115.746 83.3371 115.287 82.5348C114.836 81.7257 114.61 80.8325 114.61 79.8549C114.61 79.1134 114.741 78.4224 115.004 77.7819C115.267 77.1347 115.628 76.5686 116.086 76.083C116.551 75.591 117.091 75.2067 117.704 74.9303C118.318 74.6539 118.972 74.5158 119.666 74.5158C120.596 74.5158 121.442 74.7551 122.204 75.2336C122.973 75.7123 123.583 76.3562 124.035 77.1651C124.493 77.9741 124.722 78.8707 124.722 79.8549C124.722 80.5898 124.591 81.2774 124.328 81.9179C124.065 82.5583 123.701 83.1247 123.236 83.6167C122.777 84.1021 122.241 84.4832 121.628 84.7595C121.021 85.0359 120.367 85.174 119.666 85.174ZM119.666 83.0708C120.226 83.0708 120.728 82.9224 121.173 82.6258C121.618 82.3291 121.968 81.9381 122.224 81.4528C122.487 80.9607 122.619 80.428 122.619 79.8549C122.619 79.2685 122.484 78.7291 122.214 78.2371C121.951 77.7448 121.597 77.3538 121.153 77.0641C120.707 76.7674 120.212 76.619 119.666 76.619C119.113 76.619 118.611 76.7674 118.159 77.0641C117.714 77.3607 117.36 77.755 117.098 78.2472C116.841 78.7392 116.713 79.2752 116.713 79.8549C116.713 80.4549 116.848 80.9978 117.118 81.4831C117.387 81.9685 117.745 82.356 118.19 82.646C118.641 82.9291 119.133 83.0708 119.666 83.0708ZM133.693 85.174C132.736 85.174 131.836 84.9853 130.993 84.6079C130.151 84.2236 129.409 83.6977 128.769 83.0303C128.135 82.3561 127.636 81.574 127.272 80.6841C126.915 79.7944 126.736 78.8437 126.736 77.8325C126.736 76.8213 126.915 75.8708 127.272 74.9809C127.636 74.091 128.135 73.3124 128.769 72.645C129.409 71.9708 130.151 71.4449 130.993 71.0675C131.836 70.6831 132.736 70.491 133.693 70.491C134.839 70.491 135.894 70.7573 136.858 71.2898C137.822 71.8225 138.621 72.5304 139.255 73.4135L137.384 74.4146C136.946 73.8618 136.403 73.4202 135.756 73.0899C135.109 72.7596 134.421 72.5944 133.693 72.5944C133.019 72.5944 132.389 72.7325 131.802 73.0089C131.216 73.2853 130.7 73.6629 130.255 74.1416C129.81 74.6203 129.463 75.1763 129.213 75.8101C128.964 76.4439 128.839 77.1179 128.839 77.8325C128.839 78.554 128.964 79.2315 129.213 79.8651C129.463 80.4922 129.81 81.0482 130.255 81.5337C130.707 82.0122 131.226 82.3899 131.812 82.6663C132.399 82.936 133.026 83.0708 133.693 83.0708C134.435 83.0708 135.126 82.9056 135.766 82.5751C136.413 82.2382 136.953 81.7931 137.384 81.2403L139.255 82.2617C138.621 83.1449 137.822 83.8528 136.858 84.3854C135.894 84.9112 134.839 85.174 133.693 85.174ZM145.745 85.174C144.815 85.174 143.966 84.9347 143.197 84.456C142.435 83.9775 141.825 83.3371 141.367 82.5348C140.915 81.7257 140.689 80.8325 140.689 79.8549C140.689 79.1134 140.821 78.4224 141.084 77.7819C141.347 77.1347 141.707 76.5686 142.166 76.083C142.631 75.591 143.17 75.2067 143.784 74.9303C144.397 74.6539 145.051 74.5158 145.745 74.5158C146.676 74.5158 147.522 74.7551 148.284 75.2336C149.052 75.7123 149.662 76.3562 150.114 77.1651C150.573 77.9741 150.802 78.8707 150.802 79.8549C150.802 80.5898 150.67 81.2774 150.407 81.9179C150.144 82.5583 149.78 83.1247 149.315 83.6167C148.857 84.1021 148.321 84.4832 147.707 84.7595C147.1 85.0359 146.447 85.174 145.745 85.174ZM145.745 83.0708C146.305 83.0708 146.807 82.9224 147.252 82.6258C147.697 82.3291 148.048 81.9381 148.304 81.4528C148.567 80.9607 148.698 80.428 148.698 79.8549C148.698 79.2685 148.563 78.7291 148.294 78.2371C148.031 77.7448 147.677 77.3538 147.232 77.0641C146.787 76.7674 146.292 76.619 145.745 76.619C145.193 76.619 144.69 76.7674 144.239 77.0641C143.794 77.3607 143.44 77.755 143.177 78.2472C142.921 78.7392 142.793 79.2752 142.793 79.8549C142.793 80.4549 142.927 80.9978 143.197 81.4831C143.467 81.9685 143.824 82.356 144.269 82.646C144.721 82.9291 145.213 83.0708 145.745 83.0708ZM153.042 84.9112V74.7989H155.146V75.8708C155.496 75.4527 155.924 75.1224 156.43 74.8797C156.942 74.6371 157.495 74.5158 158.088 74.5158C158.809 74.5158 159.474 74.6909 160.08 75.0415C160.687 75.3853 161.169 75.8437 161.526 76.4167C161.884 75.8437 162.359 75.3853 162.952 75.0415C163.552 74.6909 164.213 74.5158 164.934 74.5158C165.682 74.5158 166.363 74.6978 166.977 75.0617C167.59 75.4258 168.079 75.9146 168.443 76.5281C168.807 77.1416 168.989 77.8224 168.989 78.5708V84.9112H166.886V79.1068C166.886 78.6617 166.778 78.2539 166.562 77.8831C166.347 77.5124 166.057 77.2123 165.693 76.9831C165.329 76.7539 164.924 76.6393 164.479 76.6393C164.034 76.6393 163.63 76.7472 163.266 76.9628C162.902 77.1787 162.612 77.4719 162.396 77.8426C162.18 78.2134 162.072 78.6348 162.072 79.1068V84.9112H159.969V79.1068C159.969 78.6348 159.861 78.2134 159.646 77.8426C159.43 77.4719 159.136 77.1787 158.766 76.9628C158.402 76.7472 157.997 76.6393 157.552 76.6393C157.114 76.6393 156.71 76.7539 156.339 76.9831C155.975 77.2123 155.685 77.5124 155.469 77.8831C155.253 78.2539 155.146 78.6617 155.146 79.1068V84.9112H153.042ZM171.622 84.9112V74.7989H173.725V75.8708C174.076 75.4527 174.504 75.1224 175.01 74.8797C175.522 74.6371 176.075 74.5158 176.668 74.5158C177.389 74.5158 178.053 74.6909 178.66 75.0415C179.267 75.3853 179.749 75.8437 180.106 76.4167C180.463 75.8437 180.939 75.3853 181.532 75.0415C182.132 74.6909 182.793 74.5158 183.514 74.5158C184.262 74.5158 184.943 74.6978 185.557 75.0617C186.17 75.4258 186.659 75.9146 187.023 76.5281C187.387 77.1416 187.569 77.8224 187.569 78.5708V84.9112H185.466V79.1068C185.466 78.6617 185.358 78.2539 185.142 77.8831C184.926 77.5124 184.637 77.2123 184.272 76.9831C183.908 76.7539 183.504 76.6393 183.059 76.6393C182.614 76.6393 182.21 76.7472 181.845 76.9628C181.481 77.1787 181.191 77.4719 180.976 77.8426C180.76 78.2134 180.652 78.6348 180.652 79.1068V84.9112H178.549V79.1068C178.549 78.6348 178.441 78.2134 178.225 77.8426C178.01 77.4719 177.716 77.1787 177.345 76.9628C176.981 76.7472 176.577 76.6393 176.132 76.6393C175.694 76.6393 175.289 76.7539 174.918 76.9831C174.555 77.2123 174.265 77.5124 174.049 77.8831C173.833 78.2539 173.725 78.6617 173.725 79.1068V84.9112H171.622ZM194.453 85.174C193.523 85.174 192.675 84.9347 191.905 84.456C191.143 83.9775 190.533 83.3371 190.075 82.5348C189.623 81.7257 189.397 80.8325 189.397 79.8549C189.397 79.1134 189.529 78.4224 189.792 77.7819C190.055 77.1347 190.415 76.5686 190.874 76.083C191.339 75.591 191.878 75.2067 192.491 74.9303C193.104 74.6539 193.76 74.5158 194.453 74.5158C195.228 74.5158 195.941 74.6776 196.587 75.0011C197.234 75.318 197.788 75.7595 198.246 76.3258C198.705 76.8853 199.041 77.5326 199.257 78.2674C199.473 78.9954 199.536 79.7707 199.45 80.5932H191.653C191.741 81.0583 191.909 81.4797 192.159 81.8573C192.415 82.2281 192.738 82.5213 193.129 82.7369C193.527 82.9528 193.968 83.0639 194.453 83.0708C194.967 83.0708 195.431 82.9426 195.849 82.6865C196.273 82.4304 196.621 82.0764 196.89 81.6247L199.024 82.1201C198.619 83.0168 198.01 83.7516 197.194 84.3246C196.378 84.891 195.465 85.174 194.453 85.174ZM191.582 78.9853H197.326C197.259 78.4999 197.087 78.0617 196.81 77.6707C196.541 77.273 196.199 76.9596 195.788 76.7304C195.383 76.4943 194.938 76.3764 194.453 76.3764C193.975 76.3764 193.53 76.491 193.118 76.7203C192.715 76.9495 192.377 77.2629 192.107 77.6606C191.844 78.0516 191.67 78.4932 191.582 78.9853ZM201.731 84.9112V74.7989H203.834V75.8708C204.185 75.4527 204.617 75.1224 205.129 74.8797C205.641 74.6371 206.193 74.5158 206.787 74.5158C207.165 74.5158 207.539 74.5662 207.91 74.6675L207.069 76.7909C206.808 76.6899 206.544 76.6393 206.28 76.6393C205.835 76.6393 205.428 76.7504 205.058 76.973C204.687 77.1888 204.389 77.482 204.168 77.8528C203.944 78.2235 203.834 78.6348 203.834 79.0865V84.9112H201.731ZM215.814 82.0393L217.695 83.0607C217.237 83.701 216.652 84.2134 215.946 84.5978C215.245 84.9819 214.482 85.174 213.659 85.174C212.729 85.174 211.881 84.9347 211.111 84.456C210.349 83.9775 209.74 83.3371 209.281 82.5348C208.83 81.7257 208.603 80.8325 208.603 79.8549C208.603 79.1134 208.735 78.4224 208.999 77.7819C209.26 77.1347 209.621 76.5686 210.08 76.083C210.546 75.591 211.084 75.2067 211.697 74.9303C212.311 74.6539 212.966 74.5158 213.659 74.5158C214.482 74.5158 215.245 74.7078 215.946 75.0921C216.652 75.4764 217.237 75.9921 217.695 76.6393L215.814 77.6606C215.531 77.3235 215.201 77.0673 214.822 76.8922C214.446 76.7101 214.058 76.619 213.659 76.619C213.107 76.619 212.605 76.7707 212.154 77.0742C211.709 77.3708 211.354 77.7651 211.092 78.2573C210.836 78.7427 210.706 79.2752 210.706 79.8549C210.706 80.428 210.838 80.9607 211.102 81.4528C211.365 81.9381 211.718 82.3291 212.164 82.6258C212.614 82.9224 213.113 83.0708 213.659 83.0708C214.077 83.0708 214.475 82.9763 214.853 82.7875C215.231 82.5988 215.55 82.3494 215.814 82.0393ZM224.339 85.174C223.408 85.174 222.56 84.9347 221.791 84.456C221.028 83.9775 220.419 83.3371 219.961 82.5348C219.51 81.7257 219.283 80.8325 219.283 79.8549C219.283 79.1134 219.414 78.4224 219.678 77.7819C219.94 77.1347 220.301 76.5686 220.759 76.083C221.225 75.591 221.764 75.2067 222.377 74.9303C222.992 74.6539 223.645 74.5158 224.339 74.5158C225.114 74.5158 225.827 74.6776 226.472 75.0011C227.12 75.318 227.674 75.7595 228.132 76.3258C228.591 76.8853 228.927 77.5326 229.143 78.2674C229.358 78.9954 229.423 79.7707 229.335 80.5932H221.538C221.626 81.0583 221.794 81.4797 222.045 81.8573C222.301 82.2281 222.623 82.5213 223.015 82.7369C223.412 82.9528 223.853 83.0639 224.339 83.0708C224.852 83.0708 225.317 82.9426 225.735 82.6865C226.159 82.4304 226.507 82.0764 226.776 81.6247L228.91 82.1201C228.506 83.0168 227.895 83.7516 227.08 84.3246C226.264 84.891 225.351 85.174 224.339 85.174ZM221.468 78.9853H227.211C227.145 78.4999 226.973 78.0617 226.696 77.6707C226.426 77.273 226.086 76.9596 225.674 76.7304C225.269 76.4943 224.826 76.3764 224.339 76.3764C223.861 76.3764 223.416 76.491 223.005 76.7203C222.6 76.9495 222.262 77.2629 221.993 77.6606C221.731 78.0516 221.556 78.4932 221.468 78.9853ZM242.305 85.174C241.53 85.174 240.785 85.0527 240.07 84.81C239.356 84.5674 238.733 84.2201 238.2 83.7684C237.667 83.31 237.287 82.7673 237.058 82.1404L239.029 81.4021C239.144 81.7257 239.364 82.0157 239.686 82.2718C240.017 82.5213 240.408 82.7169 240.859 82.8584C241.318 82.9999 241.799 83.0708 242.305 83.0708C242.846 83.0708 243.35 82.9831 243.822 82.8078C244.301 82.6324 244.685 82.3899 244.976 82.0796C245.272 81.7696 245.421 81.4056 245.421 80.9876C245.421 80.5561 245.266 80.2022 244.954 79.9258C244.651 79.6494 244.261 79.4303 243.782 79.2685C243.31 79.1068 242.817 78.9853 242.305 78.9045C241.314 78.7427 240.424 78.5068 239.637 78.1966C238.854 77.8866 238.233 77.4516 237.774 76.8922C237.324 76.3325 237.098 75.6046 237.098 74.7078C237.098 73.8652 237.337 73.1304 237.816 72.5033C238.302 71.8764 238.938 71.391 239.726 71.0472C240.523 70.6967 241.383 70.5214 242.305 70.5214C243.067 70.5214 243.803 70.6427 244.509 70.8854C245.224 71.1213 245.852 71.4686 246.391 71.927C246.937 72.3786 247.329 72.9281 247.564 73.5753L245.571 74.2933C245.457 73.9628 245.237 73.6763 244.914 73.4337C244.592 73.1843 244.2 72.9888 243.742 72.8471C243.289 72.7056 242.811 72.6349 242.305 72.6349C241.767 72.628 241.26 72.7157 240.789 72.8977C240.324 73.0731 239.942 73.3157 239.646 73.6259C239.35 73.9359 239.201 74.2967 239.201 74.7078C239.201 75.2134 239.339 75.5977 239.616 75.8607C239.893 76.1235 240.263 76.3191 240.727 76.4471C241.199 76.5686 241.726 76.6798 242.305 76.7808C243.235 76.9292 244.095 77.1752 244.884 77.5191C245.68 77.8629 246.316 78.3213 246.796 78.8943C247.281 79.4607 247.524 80.1585 247.524 80.9876C247.524 81.8235 247.281 82.5583 246.796 83.1921C246.316 83.819 245.68 84.3078 244.884 84.6583C244.095 85.0021 243.235 85.174 242.305 85.174ZM254.601 85.174C253.67 85.174 252.82 84.9347 252.052 84.456C251.29 83.9775 250.681 83.3371 250.223 82.5348C249.77 81.7257 249.545 80.8325 249.545 79.8549C249.545 79.1134 249.676 78.4224 249.938 77.7819C250.202 77.1347 250.563 76.5686 251.021 76.083C251.485 75.591 252.026 75.2067 252.639 74.9303C253.252 74.6539 253.905 74.5158 254.601 74.5158C255.531 74.5158 256.377 74.7551 257.139 75.2336C257.907 75.7123 258.518 76.3562 258.969 77.1651C259.427 77.9741 259.657 78.8707 259.657 79.8549C259.657 80.5898 259.525 81.2774 259.263 81.9179C259 82.5583 258.635 83.1247 258.171 83.6167C257.712 84.1021 257.175 84.4832 256.562 84.7595C255.955 85.0359 255.302 85.174 254.601 85.174ZM254.601 83.0708C255.16 83.0708 255.663 82.9224 256.108 82.6258C256.553 82.3291 256.902 81.9381 257.158 81.4528C257.422 80.9607 257.554 80.428 257.554 79.8549C257.554 79.2685 257.418 78.7291 257.149 78.2371C256.885 77.7448 256.532 77.3538 256.087 77.0641C255.642 76.7674 255.147 76.619 254.601 76.619C254.049 76.619 253.546 76.7674 253.094 77.0641C252.648 77.3607 252.295 77.755 252.031 78.2472C251.776 78.7392 251.648 79.2752 251.648 79.8549C251.648 80.4549 251.783 80.9978 252.052 81.4831C252.322 81.9685 252.679 82.356 253.124 82.646C253.575 82.9291 254.068 83.0708 254.601 83.0708ZM261.76 84.9112V69.7428H263.863V84.9112H261.76ZM266.483 81.1191V74.7989H268.586V80.6033C268.586 81.0551 268.699 81.4663 268.921 81.8371C269.144 82.2078 269.44 82.5045 269.811 82.727C270.181 82.9426 270.59 83.0506 271.035 83.0506C271.486 83.0506 271.895 82.9426 272.258 82.727C272.628 82.5045 272.922 82.2078 273.138 81.8371C273.36 81.4663 273.472 81.0551 273.472 80.6033V74.7989H275.576L275.585 84.9112H273.482L273.472 83.819C273.129 84.2369 272.699 84.5674 272.187 84.81C271.675 85.0527 271.125 85.174 270.539 85.174C269.79 85.174 269.11 84.992 268.497 84.6279C267.884 84.2641 267.395 83.7753 267.03 83.1617C266.667 82.5482 266.483 81.8674 266.483 81.1191ZM283.56 76.9023H281.436L281.426 84.9112H279.321L279.333 76.9023H277.724V74.7989H279.333L279.321 71.6237H281.426L281.436 74.7989H283.56V76.9023ZM285.839 74.7989H287.942V84.9112H285.839V74.7989ZM286.91 73.3325C286.585 73.3325 286.316 73.228 286.1 73.019C285.884 72.8101 285.777 72.5472 285.777 72.2303C285.777 71.9201 285.884 71.6607 286.1 71.4518C286.316 71.2359 286.584 71.128 286.901 71.128C287.21 71.128 287.474 71.2359 287.689 71.4518C287.903 71.6607 288.012 71.9201 288.012 72.2303C288.012 72.5472 287.903 72.8101 287.689 73.019C287.479 73.228 287.22 73.3325 286.91 73.3325ZM295.24 85.174C294.308 85.174 293.46 84.9347 292.69 84.456C291.93 83.9775 291.319 83.3371 290.86 82.5348C290.409 81.7257 290.182 80.8325 290.182 79.8549C290.182 79.1134 290.314 78.4224 290.578 77.7819C290.841 77.1347 291.2 76.5686 291.659 76.083C292.125 75.591 292.663 75.2067 293.277 74.9303C293.892 74.6539 294.545 74.5158 295.24 74.5158C296.17 74.5158 297.017 74.7551 297.777 75.2336C298.547 75.7123 299.156 76.3562 299.609 77.1651C300.067 77.9741 300.296 78.8707 300.296 79.8549C300.296 80.5898 300.164 81.2774 299.901 81.9179C299.637 82.5583 299.274 83.1247 298.808 83.6167C298.35 84.1021 297.815 84.4832 297.202 84.7595C296.594 85.0359 295.941 85.174 295.24 85.174ZM295.24 83.0708C295.798 83.0708 296.3 82.9224 296.745 82.6258C297.19 82.3291 297.542 81.9381 297.798 81.4528C298.061 80.9607 298.191 80.428 298.191 79.8549C298.191 79.2685 298.058 78.7291 297.788 78.2371C297.525 77.7448 297.171 77.3538 296.726 77.0641C296.281 76.7674 295.785 76.619 295.24 76.619C294.686 76.619 294.184 76.7674 293.733 77.0641C293.288 77.3607 292.933 77.755 292.671 78.2472C292.415 78.7392 292.287 79.2752 292.287 79.8549C292.287 80.4549 292.421 80.9978 292.69 81.4831C292.961 81.9685 293.319 82.356 293.764 82.646C294.214 82.9291 294.707 83.0708 295.24 83.0708ZM311.637 78.5708V84.9112H309.534V79.0865C309.534 78.6348 309.423 78.2235 309.199 77.8528C308.983 77.482 308.691 77.1888 308.321 76.973C307.956 76.7504 307.545 76.6393 307.087 76.6393C306.642 76.6393 306.233 76.7504 305.862 76.973C305.492 77.1888 305.196 77.482 304.972 77.8528C304.751 78.2235 304.64 78.6348 304.64 79.0865V84.9112H302.537V74.7989H304.64V75.8708C304.989 75.4527 305.421 75.1224 305.933 74.8797C306.447 74.6371 306.999 74.5158 307.593 74.5158C308.34 74.5158 309.022 74.6978 309.635 75.0617C310.248 75.4258 310.733 75.9146 311.09 76.5281C311.455 77.1416 311.637 77.8224 311.637 78.5708ZM317.296 85.1034C316.763 85.0696 316.244 84.9616 315.74 84.7798C315.233 84.5978 314.788 84.3515 314.404 84.0415C314.026 83.7246 313.743 83.3539 313.554 82.9291L315.344 82.1606C315.432 82.3427 315.583 82.5213 315.799 82.6966C316.022 82.8718 316.282 83.0168 316.578 83.1314C316.874 83.2393 317.185 83.2932 317.508 83.2932C317.825 83.2932 318.118 83.2494 318.389 83.1617C318.664 83.0674 318.891 82.9258 319.065 82.7369C319.241 82.5482 319.329 82.3224 319.329 82.0594C319.329 81.7628 319.227 81.5337 319.025 81.3718C318.83 81.2033 318.584 81.0753 318.288 80.9876C317.99 80.9 317.694 80.8157 317.397 80.7347C316.737 80.5865 316.129 80.3842 315.577 80.1281C315.031 79.8651 314.595 79.5314 314.273 79.127C313.948 78.7157 313.787 78.2134 313.787 77.6201C313.787 76.973 313.963 76.4135 314.313 75.9415C314.664 75.4628 315.123 75.0955 315.688 74.8394C316.261 74.5832 316.87 74.455 317.518 74.455C318.328 74.455 319.069 74.627 319.743 74.9708C320.417 75.3146 320.933 75.7864 321.29 76.3866L319.621 77.3775C319.522 77.1752 319.369 76.9932 319.166 76.8314C318.964 76.6696 318.735 76.5415 318.479 76.4471C318.223 76.3461 317.957 76.2888 317.68 76.2752C317.336 76.2618 317.015 76.3021 316.719 76.3967C316.429 76.4842 316.198 76.6259 316.022 76.8213C315.846 77.0169 315.759 77.2662 315.759 77.5697C315.759 77.8663 315.864 78.0887 316.072 78.2371C316.282 78.3786 316.544 78.4932 316.861 78.5809C317.185 78.6686 317.516 78.7662 317.852 78.8741C318.452 79.0628 319.015 79.2955 319.541 79.5719C320.066 79.8416 320.492 80.1753 320.815 80.573C321.139 80.9706 321.294 81.4562 321.281 82.0292C321.281 82.6628 321.088 83.219 320.704 83.6977C320.326 84.1764 319.835 84.5405 319.227 84.7897C318.62 85.0392 317.976 85.1437 317.296 85.1034Z" fill="#747B8C"/>
<path d="M96.8677 54.4978C94.9532 54.4978 93.1734 54.1473 91.5286 53.4461C89.9105 52.7451 88.5083 51.7741 87.3217 50.5337C86.1623 49.2664 85.3129 47.7967 84.7734 46.1248L89.3441 44.1429C90.0723 45.8686 91.124 47.2304 92.4993 48.2282C93.8746 49.1989 95.4252 49.6843 97.151 49.6843C98.1217 49.6843 98.9578 49.5361 99.6588 49.2394C100.387 48.9159 100.94 48.4844 101.317 47.9451C101.722 47.4057 101.924 46.7586 101.924 46.0035C101.924 45.1136 101.654 44.3854 101.115 43.8193C100.603 43.226 99.8206 42.7676 98.7688 42.444L92.9846 40.5834C90.6386 39.8552 88.8724 38.763 87.6858 37.3069C86.4992 35.8507 85.9061 34.1384 85.9061 32.1699C85.9061 30.4441 86.3241 28.9204 87.1599 27.5992C88.0229 26.2778 89.2095 25.253 90.7194 24.525C92.2565 23.77 94.0094 23.3923 95.978 23.3923C97.7846 23.3923 99.4431 23.7159 100.953 24.3632C102.463 24.9835 103.758 25.8598 104.836 26.9923C105.942 28.0979 106.764 29.4058 107.304 30.9159L102.773 32.9383C102.18 31.4284 101.29 30.2687 100.104 29.4598C98.9173 28.6238 97.542 28.2058 95.978 28.2058C95.0611 28.2058 94.252 28.3676 93.551 28.6912C92.8498 28.9878 92.297 29.4193 91.8926 29.9857C91.515 30.5249 91.3263 31.172 91.3263 31.9271C91.3263 32.7632 91.596 33.5047 92.1352 34.1518C92.6746 34.772 93.4969 35.2574 94.6027 35.6081L100.144 37.3474C102.544 38.1294 104.337 39.2081 105.524 40.5834C106.737 41.9586 107.344 43.6575 107.344 45.6799C107.344 47.4057 106.899 48.9292 106.009 50.2506C105.119 51.5721 103.893 52.6102 102.328 53.3653C100.764 54.1203 98.9442 54.4978 96.8677 54.4978ZM111.853 54.0124V23.3923H117.151V36.336L116.423 35.5676C116.936 34.2462 117.772 33.2485 118.931 32.5743C120.118 31.8732 121.493 31.5227 123.057 31.5227C124.675 31.5227 126.104 31.8732 127.345 32.5743C128.612 33.2755 129.596 34.2597 130.297 35.5271C130.999 36.7675 131.349 38.2102 131.349 39.8552V54.0124H126.05V41.1092C126.05 40.1383 125.862 39.3024 125.484 38.6012C125.106 37.9002 124.581 37.3608 123.907 36.9834C123.259 36.5788 122.491 36.3765 121.601 36.3765C120.738 36.3765 119.969 36.5788 119.295 36.9834C118.621 37.3608 118.095 37.9002 117.718 38.6012C117.34 39.3024 117.151 40.1383 117.151 41.1092V54.0124H111.853ZM146.589 54.4978C144.432 54.4978 142.463 53.9989 140.684 53.0012C138.931 52.0034 137.529 50.6416 136.477 48.9158C135.452 47.1901 134.94 45.2215 134.94 43.0102C134.94 40.799 135.452 38.8304 136.477 37.1047C137.529 35.3789 138.931 34.017 140.684 33.0193C142.437 32.0215 144.405 31.5227 146.589 31.5227C148.747 31.5227 150.702 32.0215 152.455 33.0193C154.207 34.017 155.596 35.3789 156.621 37.1047C157.672 38.8035 158.198 40.7721 158.198 43.0102C158.198 45.2215 157.672 47.1901 156.621 48.9158C155.569 50.6416 154.167 52.0034 152.414 53.0012C150.661 53.9989 148.72 54.4978 146.589 54.4978ZM146.589 49.644C147.776 49.644 148.814 49.3607 149.704 48.7946C150.621 48.2282 151.335 47.4462 151.848 46.4484C152.387 45.4238 152.657 44.2777 152.657 43.0102C152.657 41.7159 152.387 40.5834 151.848 39.6124C151.335 38.6148 150.621 37.8328 149.704 37.2664C148.814 36.6732 147.776 36.3765 146.589 36.3765C145.376 36.3765 144.311 36.6732 143.394 37.2664C142.477 37.8328 141.749 38.6148 141.21 39.6124C140.697 40.5834 140.441 41.7159 140.441 43.0102C140.441 44.2777 140.697 45.4238 141.21 46.4484C141.749 47.4462 142.477 48.2282 143.394 48.7946C144.311 49.3607 145.376 49.644 146.589 49.644ZM162.217 62.1023V32.0081H167.192V36.3765L166.706 35.2845C167.462 34.0979 168.486 33.1811 169.781 32.5339C171.075 31.8597 172.572 31.5227 174.271 31.5227C176.347 31.5227 178.221 32.035 179.893 33.0598C181.565 34.0844 182.886 35.4597 183.857 37.1856C184.855 38.9114 185.354 40.8529 185.354 43.0102C185.354 45.1405 184.868 47.0821 183.897 48.8349C182.927 50.5878 181.605 51.9764 179.933 53.0012C178.261 53.9989 176.36 54.4978 174.23 54.4978C172.639 54.4978 171.169 54.1878 169.821 53.5676C168.5 52.9202 167.448 52.0034 166.666 50.817L167.516 49.7653V62.1023H162.217ZM173.623 49.644C174.837 49.644 175.915 49.3607 176.859 48.7946C177.803 48.2282 178.531 47.4462 179.043 46.4484C179.583 45.4507 179.852 44.3046 179.852 43.0102C179.852 41.7159 179.583 40.5834 179.043 39.6124C178.531 38.6148 177.803 37.8328 176.859 37.2664C175.915 36.6732 174.837 36.3765 173.623 36.3765C172.464 36.3765 171.412 36.6598 170.468 37.226C169.551 37.7923 168.823 38.5879 168.284 39.6124C167.772 40.6103 167.516 41.7428 167.516 43.0102C167.516 44.3046 167.772 45.4507 168.284 46.4484C168.823 47.4462 169.551 48.2282 170.468 48.7946C171.412 49.3607 172.464 49.644 173.623 49.644ZM189.838 54.0124V23.8777H202.539C204.535 23.8777 206.235 24.2284 207.637 24.9294C209.066 25.6037 210.158 26.5744 210.913 27.8418C211.694 29.0822 212.085 30.5923 212.085 32.3722C212.085 33.7474 211.707 35.0417 210.953 36.2552C210.225 37.4418 209.052 38.4261 207.434 39.2081V36.6598C208.917 37.226 210.089 37.9272 210.953 38.763C211.816 39.5991 212.422 40.5293 212.773 41.5541C213.124 42.5789 213.298 43.6575 213.298 44.79C213.298 47.6754 212.341 49.9406 210.427 51.5854C208.54 53.2035 205.91 54.0124 202.539 54.0124H189.838ZM195.339 49.1584H203.106C204.535 49.1584 205.667 48.7674 206.504 47.9854C207.366 47.1765 207.797 46.1114 207.797 44.79C207.797 43.4686 207.366 42.4035 206.504 41.5946C205.667 40.7854 204.535 40.3811 203.106 40.3811H195.339V49.1584ZM195.339 35.5676H202.823C203.956 35.5676 204.859 35.244 205.532 34.5969C206.206 33.9226 206.544 33.0598 206.544 32.0081C206.544 30.9564 206.206 30.1205 205.532 29.5001C204.859 28.8799 203.956 28.5699 202.823 28.5699H195.339V35.5676ZM225.208 54.4978C223.508 54.4978 222.026 54.1203 220.757 53.3653C219.518 52.6102 218.561 51.5585 217.886 50.2101C217.239 48.862 216.916 47.2844 216.916 45.4776V32.0081H222.215V45.0328C222.215 45.9496 222.389 46.7586 222.74 47.4596C223.118 48.1338 223.644 48.6731 224.318 49.0776C225.019 49.4551 225.8 49.644 226.663 49.644C227.527 49.644 228.295 49.4551 228.969 49.0776C229.643 48.6731 230.168 48.1203 230.547 47.4193C230.925 46.7181 231.114 45.8822 231.114 44.9113V32.0081H236.413V54.0124H231.397V49.6843L231.842 50.4529C231.328 51.8013 230.48 52.8125 229.294 53.4866C228.134 54.1608 226.772 54.4978 225.208 54.4978ZM241.337 54.0124V32.0081H246.636V54.0124H241.337ZM241.337 29.5406V23.8777H246.636V29.5406H241.337ZM251.529 54.0124V23.3923H256.828V54.0124H251.529ZM271.954 54.4978C269.824 54.4978 267.922 53.9989 266.251 53.0012C264.579 51.9764 263.257 50.5878 262.287 48.8349C261.315 47.0821 260.83 45.1405 260.83 43.0102C260.83 40.8529 261.315 38.9114 262.287 37.1856C263.257 35.4597 264.579 34.0844 266.251 33.0598C267.949 32.035 269.838 31.5227 271.914 31.5227C273.585 31.5227 275.068 31.8597 276.363 32.5339C277.684 33.1811 278.722 34.0979 279.478 35.2845L278.668 36.3765V23.3923H283.967V54.0124H278.951V49.7653L279.518 50.817C278.762 52.0034 277.711 52.9202 276.363 53.5676C275.014 54.1878 273.545 54.4978 271.954 54.4978ZM272.52 49.644C273.734 49.644 274.798 49.3607 275.715 48.7946C276.632 48.2282 277.346 47.4462 277.86 46.4484C278.399 45.4507 278.668 44.3046 278.668 43.0102C278.668 41.7428 278.399 40.6103 277.86 39.6124C277.346 38.5879 276.632 37.7923 275.715 37.226C274.798 36.6598 273.734 36.3765 272.52 36.3765C271.333 36.3765 270.267 36.6732 269.324 37.2664C268.38 37.8328 267.639 38.6148 267.101 39.6124C266.587 40.5834 266.331 41.7159 266.331 43.0102C266.331 44.3046 266.587 45.4507 267.101 46.4484C267.639 47.4462 268.38 48.2282 269.324 48.7946C270.267 49.3607 271.333 49.644 272.52 49.644ZM299.334 54.4978C297.068 54.4978 295.086 53.9855 293.388 52.9607C291.688 51.9361 290.366 50.5473 289.422 48.7946C288.479 47.0416 288.007 45.1002 288.007 42.9699C288.007 40.7585 288.479 38.8035 289.422 37.1047C290.394 35.3789 291.701 34.017 293.345 33.0193C295.019 32.0215 296.879 31.5227 298.929 31.5227C300.654 31.5227 302.164 31.8058 303.46 32.3722C304.779 32.9383 305.899 33.7203 306.816 34.7182C307.732 35.7158 308.433 36.8619 308.919 38.1564C309.404 39.4237 309.646 40.799 309.646 42.2822C309.646 42.6597 309.62 43.0507 309.566 43.4552C309.539 43.8596 309.473 44.2103 309.364 44.5069H292.375V40.4619H306.371L303.863 42.363C304.105 41.1226 304.038 40.017 303.66 39.0463C303.311 38.0754 302.716 37.3069 301.882 36.7406C301.072 36.1742 300.088 35.8912 298.929 35.8912C297.823 35.8912 296.839 36.1742 295.976 36.7406C295.112 37.28 294.451 38.0889 293.993 39.1676C293.561 40.2193 293.401 41.5002 293.508 43.0102C293.401 44.3585 293.575 45.5586 294.033 46.6102C294.52 47.6349 295.221 48.4305 296.138 48.9966C297.082 49.563 298.159 49.8461 299.374 49.8461C300.587 49.8461 301.611 49.5899 302.447 49.0776C303.311 48.5653 303.985 47.8777 304.47 47.0147L308.758 49.1181C308.327 50.1698 307.652 51.1001 306.735 51.909C305.819 52.7181 304.726 53.3517 303.46 53.8101C302.218 54.2686 300.843 54.4978 299.334 54.4978ZM313.663 54.0124V32.0081H318.639V36.9024L318.234 36.1742C318.748 34.5294 319.543 33.3834 320.622 32.7362C321.728 32.0889 323.048 31.7653 324.585 31.7653H325.88V36.4575H323.978C322.469 36.4575 321.254 36.9293 320.337 37.8731C319.42 38.79 318.964 40.0844 318.964 41.7564V54.0124H313.663Z" fill="black"/>
<g clip-path="url(#clip1_28637_12169)">
<path d="M61.4338 30.3618C61.4338 29.8166 61.3198 29.2524 61.0923 28.7447C60.8837 28.2184 60.5611 27.7483 60.163 27.3534C59.7646 26.9586 59.2904 26.6577 58.7782 26.4321C58.247 26.2253 57.697 26.1124 57.1281 26.1124H14.223C13.085 26.1124 12.0038 26.5637 11.1882 27.3722C10.3915 28.1619 9.93632 29.2337 9.93632 30.3618L0.0351562 82.7276C0.0541241 84.4952 0.774898 86.2061 2.0647 87.4472C3.33555 88.7069 5.0616 89.4028 6.86354 89.3838H63.2546C64.1651 89.4028 65.0375 89.2146 65.8722 88.8762C66.7067 88.5377 67.4656 88.049 68.0914 87.4283C68.7173 86.789 69.2294 86.0558 69.5708 85.2284C69.9123 84.4012 70.102 83.5174 70.102 82.6337L61.4338 30.3618ZM48.5736 31.8848V34.1037C48.5736 34.5925 48.972 34.9874 49.465 34.9874C49.9583 34.9874 50.3565 34.5925 50.3565 34.1037V31.8848C51.4947 32.2422 52.2913 33.2951 52.2913 34.5362C52.2913 36.0779 51.0393 37.3376 49.465 37.3376C47.8907 37.3376 46.6388 36.0779 46.6388 34.5362C46.6388 33.2951 47.4544 32.2609 48.5736 31.8848ZM19.7616 31.8848V34.1037C19.7616 34.5925 20.1599 34.9874 20.6531 34.9874C21.1462 34.9874 21.5446 34.5925 21.5446 34.1037V31.8848C22.6637 32.2609 23.4793 33.2951 23.4793 34.5362C23.4793 36.0779 22.2084 37.3376 20.6531 37.3376C19.0977 37.3376 17.8269 36.0779 17.8269 34.5362C17.8269 33.2951 18.6425 32.2609 19.7616 31.8848ZM9.57592 64.6205C9.34832 64.019 9.67076 63.3607 10.2777 63.1353L21.0135 59.2618C21.6204 59.055 22.3033 59.3558 22.5119 59.9576C22.7395 60.5591 22.4171 61.2173 21.8101 61.443L11.0744 65.3163C10.4674 65.5231 9.80354 65.2222 9.57592 64.6205ZM25.357 73.1006L17.6752 75.8647C17.0682 76.0902 16.3854 75.7893 16.1767 75.1878C15.9491 74.5861 16.2715 73.9092 16.8785 73.7024L24.5415 70.9196C25.1484 70.7126 25.8313 71.0135 26.0399 71.6152C26.2676 72.2169 25.9641 72.8749 25.357 73.1006ZM28.6575 65.9556L20.8807 68.7384C20.729 68.8135 20.5582 68.8324 20.4065 68.8324C20.1599 68.8324 19.9323 68.7573 19.7237 68.6067C19.534 68.4751 19.3823 68.2872 19.3064 68.0615C19.2495 67.9112 19.2305 67.7606 19.2305 67.6103C19.2305 67.4597 19.2684 67.3094 19.3253 67.1778C19.4012 67.0275 19.4961 66.9145 19.6099 66.8017C19.7237 66.7077 19.8565 66.6325 19.9892 66.576L27.7661 63.7743C28.0505 63.6616 28.3731 63.6616 28.6763 63.7743C28.961 63.906 29.1885 64.1317 29.3024 64.4137C29.4162 64.7145 29.4162 65.0343 29.3024 65.3163C29.1696 65.6172 28.9419 65.8429 28.6575 65.9556ZM41.5556 76.4662C41.2521 77.162 40.683 77.7073 39.9623 78.0082C39.431 78.1963 38.8431 78.2339 38.274 78.1209C37.724 77.9893 37.2118 77.7073 36.8137 77.2748C36.4153 76.8612 36.1497 76.3535 36.0548 75.7893C35.9601 75.2254 36.0359 74.6426 36.2636 74.1349C36.5102 73.6083 36.8895 73.1571 37.3825 72.8563C37.8568 72.5554 38.4259 72.4048 39.0138 72.4237C39.5829 72.4237 40.133 72.6119 40.6072 72.9503C41.0814 73.2699 41.4417 73.74 41.6503 74.2663C41.897 74.981 41.878 75.7707 41.5556 76.4662ZM53.2964 72.2734C52.9741 72.969 52.3482 73.5143 51.6084 73.7775C51.0584 73.9657 50.4704 74.0033 49.9013 73.8527C49.3322 73.7024 48.8201 73.4015 48.4408 72.969C48.0426 72.5365 47.7958 71.9912 47.7012 71.4273C47.6251 70.8442 47.72 70.2614 47.9665 69.7351C48.2321 69.2085 48.6305 68.7759 49.1236 68.4751C49.6357 68.1931 50.2237 68.0428 50.7928 68.0804C51.3807 68.099 51.9498 68.3058 52.405 68.6632C52.8792 69.0017 53.2397 69.4718 53.4292 70.0357C53.6948 70.7691 53.6379 71.5776 53.2964 72.2734ZM54.1312 62.966C53.7707 63.7933 53.1448 64.4702 52.3671 64.9213C52.0068 65.1281 51.6275 65.3163 51.2479 65.4479L35.8273 71.0135C34.7272 71.4649 33.4941 71.4649 32.3752 71.0324C31.2561 70.6188 30.3646 69.7726 29.8525 68.7008C29.5869 68.2496 29.3404 67.7982 29.1127 67.3281C29.7006 67.1026 30.2127 66.689 30.5353 66.1435C30.8388 65.5982 30.9526 64.9403 30.8577 64.3198C30.7439 63.6992 30.4213 63.1353 29.9283 62.7214C29.4352 62.3267 28.8282 62.101 28.1833 62.0821C27.8607 62.0821 27.5384 62.1386 27.2349 62.2327L26.4571 62.5146L25.4898 60.8599C24.2949 58.6413 23.081 56.4225 21.867 54.185C21.6015 53.6587 21.5066 53.6208 20.9566 53.809L18.377 54.7492C17.9976 54.9371 17.5613 54.9746 17.163 54.8808C16.7457 54.7678 16.3854 54.5424 16.1198 54.2039L15.8353 53.3954C15.8353 52.9818 15.9681 52.5679 16.2146 52.2295C16.4802 51.9099 16.8406 51.6655 17.2579 51.5715C18.0735 51.3082 18.927 50.9886 19.7616 50.6878C20.2168 50.481 20.729 50.368 21.2221 50.3493C21.7342 50.3304 22.2274 50.4245 22.7016 50.6126C23.1758 50.7818 23.6121 51.0638 23.9724 51.4022C24.3328 51.7594 24.6173 52.1732 24.807 52.6244L25.7934 54.4107C25.7934 54.4107 25.8313 54.5048 25.8692 54.5424C25.8883 54.561 25.9262 54.5986 25.9829 54.6175C26.0211 54.6175 26.059 54.6175 26.1157 54.6175C26.1536 54.6175 26.2106 54.5799 26.2485 54.561L26.5899 54.4483C34.3667 51.609 42.2003 48.7887 50.0532 45.987C50.4135 45.8178 50.8307 45.7802 51.21 45.8743C51.6084 45.987 51.9498 46.2127 52.1775 46.5323C52.3292 46.7956 52.4241 47.0775 52.462 47.3595C53.1257 51.7031 53.8276 56.0089 54.4535 60.3523C54.6242 61.236 54.5105 62.1386 54.1312 62.9471V62.966Z" fill="#004BFF"/>
<path d="M21.5486 31.8851V34.1039C21.5486 34.5927 21.1503 34.9876 20.6571 34.9876C20.1639 34.9876 19.7656 34.5927 19.7656 34.1039V31.8851C20.0501 31.791 20.353 31.7347 20.6565 31.7347C20.9599 31.7347 21.2641 31.791 21.5486 31.8851Z" fill="#004BFF"/>
<path d="M50.361 31.8851V34.1039C50.361 34.5927 49.9629 34.9876 49.4696 34.9876C48.9765 34.9876 48.5781 34.5927 48.5781 34.1039V31.8851C48.8628 31.791 49.1661 31.7347 49.4696 31.7347C49.7728 31.7347 50.0766 31.791 50.361 31.8851Z" fill="#004BFF"/>
<path fill-rule="evenodd" clip-rule="evenodd" d="M50.3606 19.9453L50.3611 34.1039C50.3611 34.5927 49.963 34.9876 49.4697 34.9876C48.9766 34.9876 48.5782 34.5927 48.5782 34.1039L48.5777 19.9453C48.5777 16.3916 47.1551 12.9883 44.6323 10.4687C42.0908 7.96795 38.6575 6.53894 35.0726 6.53894C31.4877 6.53894 28.0356 7.96795 25.5128 10.4687C22.9712 12.9883 21.5486 16.3916 21.5486 19.9453L21.5492 34.1039C21.5492 34.5927 21.1509 34.9876 20.6578 34.9876C20.1646 34.9876 19.7663 34.5927 19.7663 34.1039L19.7656 19.9453C19.7656 15.9215 21.3779 12.067 24.242 9.22776C27.1062 6.38853 31.0135 4.77148 35.0726 4.77148C39.1317 4.77148 43.0201 6.36972 45.8843 9.22776C48.7484 12.067 50.3606 15.9215 50.3606 19.9453Z" fill="#004BFF"/>
</g>
</g>
<rect x="324.934" width="40.0643" height="20.7229" rx="10.3615" fill="#FF090E"/>
<path d="M334.328 14.3615V6.32346H337.342C337.959 6.32346 338.477 6.43859 338.896 6.66885C339.317 6.8991 339.635 7.2157 339.85 7.61865C340.067 8.01898 340.176 8.47425 340.176 8.98448C340.176 9.49993 340.067 9.95783 339.85 10.3582C339.633 10.7585 339.312 11.0738 338.888 11.304C338.464 11.5317 337.942 11.6455 337.322 11.6455H335.325V10.4484H337.126C337.487 10.4484 337.783 10.3856 338.013 10.26C338.243 10.1344 338.413 9.96175 338.523 9.74196C338.636 9.52217 338.692 9.26968 338.692 8.98448C338.692 8.69927 338.636 8.44809 338.523 8.23092C338.413 8.01374 338.242 7.84498 338.009 7.72462C337.779 7.60164 337.482 7.54015 337.118 7.54015H335.784V14.3615H334.328ZM341.44 14.3615V6.32346H344.455C345.072 6.32346 345.59 6.43074 346.009 6.6453C346.43 6.85985 346.748 7.16075 346.963 7.548C347.18 7.93263 347.288 8.38137 347.288 8.89421C347.288 9.40966 347.178 9.85709 346.959 10.2365C346.741 10.6133 346.421 10.905 345.997 11.1117C345.573 11.3158 345.052 11.4179 344.435 11.4179H342.288V10.209H344.239C344.6 10.209 344.896 10.1593 345.126 10.0599C345.356 9.95783 345.526 9.80999 345.636 9.61637C345.748 9.42013 345.805 9.17941 345.805 8.89421C345.805 8.609 345.748 8.36567 345.636 8.16419C345.523 7.9601 345.352 7.80573 345.122 7.70107C344.892 7.59379 344.595 7.54015 344.231 7.54015H342.896V14.3615H341.44ZM345.593 10.7192L347.583 14.3615H345.958L344.003 10.7192H345.593ZM355.811 10.3425C355.811 11.2085 355.649 11.9503 355.324 12.5678C355.003 13.1827 354.563 13.6537 354.006 13.9807C353.451 14.3078 352.822 14.4713 352.118 14.4713C351.414 14.4713 350.783 14.3078 350.226 13.9807C349.671 13.6511 349.232 13.1788 348.907 12.5639C348.585 11.9464 348.425 11.2059 348.425 10.3425C348.425 9.47638 348.585 8.73591 348.907 8.12102C349.232 7.50352 349.671 7.03124 350.226 6.70417C350.783 6.3771 351.414 6.21357 352.118 6.21357C352.822 6.21357 353.451 6.3771 354.006 6.70417C354.563 7.03124 355.003 7.50352 355.324 8.12102C355.649 8.73591 355.811 9.47638 355.811 10.3425ZM354.347 10.3425C354.347 9.7328 354.252 9.21866 354.061 8.80001C353.872 8.37875 353.611 8.06084 353.276 7.84629C352.941 7.62911 352.555 7.52053 352.118 7.52053C351.681 7.52053 351.295 7.62911 350.96 7.84629C350.625 8.06084 350.362 8.37875 350.171 8.80001C349.983 9.21866 349.889 9.7328 349.889 10.3425C349.889 10.9521 349.983 11.4676 350.171 11.8888C350.362 12.3075 350.625 12.6254 350.96 12.8426C351.295 13.0571 351.681 13.1644 352.118 13.1644C352.555 13.1644 352.941 13.0571 353.276 12.8426C353.611 12.6254 353.872 12.3075 354.061 11.8888C354.252 11.4676 354.347 10.9521 354.347 10.3425Z" fill="white"/>
<defs>
<clipPath id="clip0_28637_12169">
<rect width="328.54" height="87.8652" fill="white" transform="translate(0 2.76306)"/>
</clipPath>
<clipPath id="clip1_28637_12169">
<rect width="70.2922" height="87.1012" fill="white" transform="translate(0 3.5271)"/>
</clipPath>
</defs>
</svg>
