<svg width="64" height="64" viewBox="0 0 64 64" fill="none" xmlns="http://www.w3.org/2000/svg">
<path d="M36.0013 18.6667C36.7377 18.6667 37.3346 18.0697 37.3346 17.3333C37.3346 16.597 36.7377 16 36.0013 16C35.2649 16 34.668 16.597 34.668 17.3333C34.668 18.0697 35.2649 18.6667 36.0013 18.6667Z" fill="#FF6C23" stroke="#FF6C23" stroke-width="4" stroke-linecap="round" stroke-linejoin="round"/>
<path d="M46.6654 29.3332C47.4017 29.3332 47.9987 28.7362 47.9987 27.9998C47.9987 27.2635 47.4017 26.6665 46.6654 26.6665C45.929 26.6665 45.332 27.2635 45.332 27.9998C45.332 28.7362 45.929 29.3332 46.6654 29.3332Z" fill="#FF6C23" stroke="#FF6C23" stroke-width="4" stroke-linecap="round" stroke-linejoin="round"/>
<path d="M22.6654 21.3332C23.4017 21.3332 23.9987 20.7362 23.9987 19.9998C23.9987 19.2635 23.4017 18.6665 22.6654 18.6665C21.929 18.6665 21.332 19.2635 21.332 19.9998C21.332 20.7362 21.929 21.3332 22.6654 21.3332Z" fill="#FF6C23" stroke="#FF6C23" stroke-width="4" stroke-linecap="round" stroke-linejoin="round"/>
<path d="M17.3333 34.6667C18.0697 34.6667 18.6667 34.0697 18.6667 33.3333C18.6667 32.597 18.0697 32 17.3333 32C16.597 32 16 32.597 16 33.3333C16 34.0697 16.597 34.6667 17.3333 34.6667Z" fill="#FF6C23" stroke="#FF6C23" stroke-width="4" stroke-linecap="round" stroke-linejoin="round"/>
<path d="M31.9987 5.3335C17.332 5.3335 5.33203 17.3335 5.33203 32.0002C5.33203 46.6668 17.332 58.6668 31.9987 58.6668C34.468 58.6668 36.3934 56.6775 36.3934 54.1655C36.3934 53.0002 35.9134 51.9388 35.228 51.1655C34.4547 50.3948 34.06 49.4268 34.06 48.1655C34.0499 47.5786 34.1581 46.9957 34.378 46.4514C34.598 45.9072 34.9252 45.4128 35.3403 44.9978C35.7554 44.5827 36.2497 44.2554 36.794 44.0355C37.3382 43.8155 37.9211 43.7074 38.508 43.7175H43.8307C51.9667 43.7175 58.644 37.0428 58.644 28.9068C58.572 16.0322 46.5614 5.3335 31.9987 5.3335Z" stroke="#FF6C23" stroke-width="4" stroke-linecap="round" stroke-linejoin="round"/>
</svg>
