<svg width="64" height="64" viewBox="0 0 64 64" fill="none" xmlns="http://www.w3.org/2000/svg">
<path d="M8 8V50.6667C8 52.0812 8.5619 53.4377 9.5621 54.4379C10.5623 55.4381 11.9188 56 13.3333 56H56" stroke="#FF6C23" stroke-width="4" stroke-linecap="round" stroke-linejoin="round"/>
<path d="M40.0013 34.6655H21.3346C19.8619 34.6655 18.668 35.8594 18.668 37.3322V42.6655C18.668 44.1383 19.8619 45.3322 21.3346 45.3322H40.0013C41.4741 45.3322 42.668 44.1383 42.668 42.6655V37.3322C42.668 35.8594 41.4741 34.6655 40.0013 34.6655Z" stroke="#FF6C23" stroke-width="4" stroke-linecap="round" stroke-linejoin="round"/>
<path d="M48.0013 13.3345H21.3346C19.8619 13.3345 18.668 14.5284 18.668 16.0011V21.3345C18.668 22.8072 19.8619 24.0011 21.3346 24.0011H48.0013C49.4741 24.0011 50.668 22.8072 50.668 21.3345V16.0011C50.668 14.5284 49.4741 13.3345 48.0013 13.3345Z" stroke="#FF6C23" stroke-width="4" stroke-linecap="round" stroke-linejoin="round"/>
</svg>
