<svg width="95" height="26" viewBox="0 0 95 26" fill="none" xmlns="http://www.w3.org/2000/svg">
<g clip-path="url(#clip0_28683_9465)">
<path d="M12.0825 25.2704C14.8471 25.2704 17.0657 23.9052 18.7381 20.7651L22.4584 13.8023V19.707C22.4584 23.1884 24.7111 25.2704 28.1925 25.2704C30.923 25.2704 32.9368 24.0758 34.8822 20.7651L43.4492 6.29339C45.3264 3.11918 43.9953 0.72998 39.8654 0.72998C37.6469 0.72998 36.2134 1.44674 34.9164 3.87006L29.0117 14.9628V5.09879C29.0117 2.1635 27.6123 0.72998 25.0183 0.72998C22.9704 0.72998 21.3321 1.6174 20.0692 4.07485L14.5058 14.9628V5.20119C14.5058 2.0611 13.2088 0.72998 10.0687 0.72998H3.65206C1.22873 0.72998 0 1.85632 0 3.93833C0 6.02034 1.29699 7.21494 3.65206 7.21494H6.28017V19.6729C6.28017 23.1884 8.63523 25.2704 12.0825 25.2704Z" fill="#873EFF"/>
<path fill-rule="evenodd" clip-rule="evenodd" d="M55.9766 0.72998C48.9797 0.72998 43.6211 5.95208 43.6211 13.0173C43.6211 20.0825 49.0138 25.2704 55.9766 25.2704C62.9394 25.2704 68.2639 20.0483 68.298 13.0173C68.298 5.95208 62.9394 0.72998 55.9766 0.72998ZM55.9766 17.7274C53.3485 17.7274 51.5395 15.7478 51.5395 13.0173C51.5395 10.2868 53.3485 8.27301 55.9766 8.27301C58.6047 8.27301 60.4137 10.2868 60.4137 13.0173C60.4137 15.7478 58.6389 17.7274 55.9766 17.7274Z" fill="#873EFF"/>
<path fill-rule="evenodd" clip-rule="evenodd" d="M70.0352 13.0173C70.0352 5.95208 75.3938 0.72998 82.3566 0.72998C89.3194 0.72998 94.678 5.98621 94.678 13.0173C94.678 20.0483 89.3194 25.2704 82.3566 25.2704C75.3938 25.2704 70.0352 20.0825 70.0352 13.0173ZM77.9537 13.0173C77.9537 15.7478 79.6944 17.7274 82.3566 17.7274C84.9847 17.7274 86.7937 15.7478 86.7937 13.0173C86.7937 10.2868 84.9847 8.27301 82.3566 8.27301C79.7285 8.27301 77.9537 10.2868 77.9537 13.0173Z" fill="#873EFF"/>
</g>
<defs>
<clipPath id="clip0_28683_9465">
<rect width="95" height="26" fill="white"/>
</clipPath>
</defs>
</svg>
