<svg width="56" height="70" viewBox="0 0 56 70" fill="none" xmlns="http://www.w3.org/2000/svg">
<g clip-path="url(#clip0_28707_9427)">
<path d="M51.4269 67.4381C53.355 59.3894 50.8236 50.0388 46.3805 43.139C42.1312 36.5351 34.1559 29.3321 25.391 31.3548C22.2025 32.0912 19.4883 34.6678 20.9393 37.9809C22.2889 41.0582 25.9232 42.0632 28.9391 40.65C37.0715 36.8299 33.6107 25.0824 29.84 19.4342C27.4437 15.8479 24.2104 12.856 20.4013 10.7005C16.8751 8.71596 12.3403 6.99309 8.2071 7.45948C7.61562 7.52704 7.59868 8.48886 8.17452 8.60318C11.2517 9.20406 14.2213 9.53851 17.1336 10.7864C20.1532 12.1044 22.8909 13.9601 25.2036 16.2565C29.7878 20.7766 33.6577 28.0855 32.0462 34.5697C31.2122 38.0068 26.597 42.1668 23.1664 38.7872C21.7718 37.4137 21.4525 35.2741 23.0194 33.9073C24.4502 32.6617 26.689 32.3236 28.5364 32.3763C36.0639 32.5232 42.3087 38.7551 45.9096 44.6078C47.9451 47.923 49.4015 51.54 50.2199 55.3125C51.0992 59.3454 50.9741 63.2485 50.701 67.3228C50.702 67.408 50.7339 67.4901 50.7913 67.5547C50.8486 67.6193 50.9276 67.6623 51.0144 67.6761C51.1012 67.6899 51.1902 67.6735 51.2656 67.63C51.3411 67.5864 51.3982 67.5185 51.4269 67.4381Z" fill="#2736FC"/>
<path d="M50.9905 69.6538C55.2431 61.4452 53.7473 51.4994 48.4437 44.0686C45.8572 40.5085 42.6377 37.4213 38.9356 34.9514C35.1707 32.4063 30.6466 29.8193 26.0009 29.4169C22.7577 29.1354 17.4475 30.6285 18.0319 34.7273C18.5466 38.3345 22.8411 41.6375 26.4981 41.7214C30.5912 41.8076 33.4845 38.2063 34.0896 34.6006C34.8127 30.279 33.0751 25.6375 30.9952 21.8675C26.4407 13.6106 18.0347 7.44202 8.53453 5.64184C7.6289 5.47086 7.19677 6.80239 8.11266 6.98042C14.9904 8.36088 21.2081 11.9021 25.7985 17.0532C28.1577 19.6808 30.0205 22.6896 31.3013 25.9415C32.7512 29.6598 33.8529 34.3372 31.3112 37.8405C28.4975 41.7041 23.5989 40.6293 20.8255 37.3257C19.2059 35.3989 18.6484 33.0465 21.1817 31.5553C23.243 30.3445 25.9413 30.5294 28.171 31.123C35.3313 33.0153 42.3721 38.2468 46.7446 43.9527C52.2616 51.1194 54.2845 60.9283 50.1812 69.1648C49.9149 69.6941 50.7135 70.1929 50.9905 69.6538Z" fill="#2736FC"/>
<path d="M14.3482 13.3191C13.1836 11.8273 11.7774 10.4941 10.4806 9.1133L8.64219 7.15321C8.35776 6.85135 6.67815 5.43941 6.78709 5.04409C6.84524 4.83978 9.11926 4.48925 9.41426 4.42L12.0414 3.7959C13.7484 3.39208 15.8949 3.23038 17.3912 2.26006C17.51 2.19282 17.6032 2.09033 17.6571 1.96773C17.7109 1.84514 17.7226 1.70895 17.6903 1.5793C17.658 1.44966 17.5834 1.33343 17.4777 1.24781C17.372 1.16219 17.2407 1.11171 17.1032 1.10385C15.9028 0.992001 14.7603 1.42203 13.5975 1.7063C12.2883 2.02691 10.978 2.34861 9.66641 2.67141C8.45424 2.97452 5.48895 3.0994 5.03206 4.56528C4.5982 5.95754 7.01427 7.47825 7.84491 8.3224C9.71633 10.226 11.5095 12.3064 13.5497 14.0392C13.6501 14.1387 13.7869 14.1961 13.9305 14.199C14.074 14.202 14.2129 14.1502 14.3172 14.0548C14.4215 13.9595 14.4829 13.8282 14.488 13.6893C14.4932 13.5504 14.4418 13.415 14.3449 13.3123L14.3482 13.3191Z" fill="#2736FC"/>
<path d="M14.609 12.8857C13.0634 11.5485 11.1092 10.5913 9.4118 9.43546C7.41933 8.11418 5.52788 6.6554 3.75221 5.07052L3.3652 6.41009C5.53364 5.84721 7.72398 5.37274 9.93893 5.01378C12.0943 4.66325 14.5327 4.79011 16.5924 4.12621C17.1909 3.93392 17.3974 2.93024 16.6308 2.77672C14.6013 2.38126 12.1819 2.93698 10.1561 3.26757C7.73018 3.65364 5.3314 4.18408 2.97342 4.85587C2.81891 4.8983 2.68022 4.98257 2.57364 5.09876C2.46706 5.21495 2.39702 5.35825 2.37176 5.51179C2.3465 5.66534 2.36707 5.82276 2.43105 5.96554C2.49503 6.10832 2.59976 6.23053 2.73293 6.31779C4.63715 7.68211 6.49095 9.1024 8.46032 10.3842C10.231 11.5387 12.1555 12.9272 14.1955 13.5661C14.5828 13.6852 14.9532 13.1724 14.6295 12.9032L14.609 12.8857Z" fill="#2736FC"/>
<path d="M16.3761 13.1525C11.9237 10.2536 7.47054 7.3783 3.06474 4.43343L2.82783 5.89208C5.18927 5.04432 7.54665 4.21671 9.96264 3.53595C12.1883 2.92406 14.6867 2.65758 16.786 1.70444C17.4502 1.40935 17.1437 0.414681 16.4743 0.39899C14.0832 0.330874 11.5092 1.29075 9.24358 1.95891C6.86624 2.64612 4.53016 3.45992 2.24599 4.3966C1.65997 4.6399 1.71611 5.48562 2.20659 5.77984C6.74355 8.52923 11.2516 11.3149 15.7738 14.0909C16.3978 14.4734 16.9858 13.5481 16.3761 13.1525Z" fill="#2736FC"/>
</g>
<defs>
<clipPath id="clip0_28707_9427">
<rect width="68.4675" height="53.1885" fill="white" transform="translate(0 68.4398) rotate(-88.3683)"/>
</clipPath>
</defs>
</svg>
